<svg width="343" height="76" viewBox="0 0 343 76" fill="none" xmlns="http://www.w3.org/2000/svg">
<path d="M333.871 75.1172L332.043 73.2891C334.41 71.4141 336.273 69.2578 337.633 66.8203C338.992 64.3594 339.672 61.6055 339.672 58.5586C339.672 55.4883 338.992 52.7344 337.633 50.2969C336.273 47.8594 334.41 45.7031 332.043 43.8281L333.871 42C336.355 44.1797 338.359 46.6406 339.883 49.3828C341.43 52.125 342.203 55.1836 342.203 58.5586C342.203 61.9336 341.43 64.9922 339.883 67.7344C338.359 70.4766 336.355 72.9375 333.871 75.1172Z" fill="#FFF9E1"/>
<path d="M300.543 72.0938V45.0234H304.129L312.602 57.2227L321.074 45.0234H324.66V72.0938H321.074V50.332L312.602 62.4258L304.129 50.332V72.0938H300.543Z" fill="#FFF9E1"/>
<path d="M291.332 75.1172C288.848 72.9375 286.832 70.4766 285.285 67.7344C283.762 64.9922 283 61.9336 283 58.5586C283 55.1836 283.762 52.125 285.285 49.3828C286.832 46.6406 288.848 44.1797 291.332 42L293.16 43.8281C290.793 45.7031 288.93 47.8594 287.57 50.2969C286.211 52.7344 285.531 55.4883 285.531 58.5586C285.531 61.6289 286.211 64.3828 287.57 66.8203C288.93 69.2578 290.793 71.4141 293.16 73.2891L291.332 75.1172Z" fill="#FFF9E1"/>
<path d="M50.8711 33.1172L49.043 31.2891C51.4102 29.4141 53.2734 27.2578 54.6328 24.8203C55.9922 22.3594 56.6719 19.6055 56.6719 16.5586C56.6719 13.4883 55.9922 10.7344 54.6328 8.29688C53.2734 5.85938 51.4102 3.70312 49.043 1.82812L50.8711 0C53.3555 2.17969 55.3594 4.64062 56.8828 7.38281C58.4297 10.125 59.2031 13.1836 59.2031 16.5586C59.2031 19.9336 58.4297 22.9922 56.8828 25.7344C55.3594 28.4766 53.3555 30.9375 50.8711 33.1172Z" fill="#FFF9E1"/>
<path d="M33.8203 30.3398C31.3125 30.3398 29.1914 29.8008 27.457 28.7227C25.7461 27.6445 24.4102 26.168 23.4492 24.293C22.4883 22.418 21.8789 20.3086 21.6211 17.9648H17.6836V30.0938H14.0977V3.02344H17.6836V14.6953H21.6914C21.9492 12.3984 22.5703 10.3594 23.5547 8.57812C24.5391 6.77344 25.8867 5.35547 27.5977 4.32422C29.332 3.29297 31.4062 2.77734 33.8203 2.77734C35.7891 2.77734 37.5352 3.15234 39.0586 3.90234C40.582 4.62891 41.8594 5.63672 42.8906 6.92578C43.9453 8.19141 44.7305 9.65625 45.2461 11.3203C45.7852 12.9609 46.0547 14.707 46.0547 16.5586C46.0547 18.4102 45.7852 20.168 45.2461 21.832C44.7305 23.4961 43.957 24.9727 42.9258 26.2617C41.8945 27.5273 40.6172 28.5234 39.0938 29.25C37.5703 29.9766 35.8125 30.3398 33.8203 30.3398ZM33.7852 27C35.2852 27 36.5625 26.707 37.6172 26.1211C38.6953 25.5117 39.5742 24.7031 40.2539 23.6953C40.9336 22.6875 41.4258 21.5625 41.7305 20.3203C42.0586 19.0547 42.2227 17.7656 42.2227 16.4531C42.2227 15.1172 42.0469 13.8398 41.6953 12.6211C41.3672 11.3789 40.8398 10.2656 40.1133 9.28125C39.4102 8.29688 38.5195 7.52344 37.4414 6.96094C36.3633 6.39844 35.0859 6.11719 33.6094 6.11719C32.1797 6.11719 30.9375 6.42188 29.8828 7.03125C28.8281 7.61719 27.9609 8.41406 27.2812 9.42188C26.6016 10.4297 26.0977 11.5547 25.7695 12.7969C25.4414 14.0391 25.2773 15.293 25.2773 16.5586C25.2773 17.8711 25.4414 19.1484 25.7695 20.3906C26.0977 21.6328 26.6133 22.7578 27.3164 23.7656C28.0195 24.75 28.8984 25.5352 29.9531 26.1211C31.0312 26.707 32.3086 27 33.7852 27Z" fill="#FFF9E1"/>
<path d="M8.33203 33.1172C5.84766 30.9375 3.83203 28.4766 2.28516 25.7344C0.761719 22.9922 0 19.9336 0 16.5586C0 13.1836 0.761719 10.125 2.28516 7.38281C3.83203 4.64062 5.84766 2.17969 8.33203 0L10.1602 1.82812C7.79297 3.70312 5.92969 5.85938 4.57031 8.29688C3.21094 10.7344 2.53125 13.4883 2.53125 16.5586C2.53125 19.6289 3.21094 22.3828 4.57031 24.8203C5.92969 27.2578 7.79297 29.4141 10.1602 31.2891L8.33203 33.1172Z" fill="#FFF9E1"/>
</svg>
