<svg width="51" height="30" viewBox="0 0 51 30" fill="none" xmlns="http://www.w3.org/2000/svg">
<path d="M2.92969 29.2656C2.22656 29.2656 1.62891 29.0078 1.13672 28.4922C0.644531 28 0.398438 27.4023 0.398438 26.6992C0.398438 25.9727 0.65625 25.375 1.17188 24.9062C1.6875 24.4141 2.29688 24.168 3 24.168C3.67969 24.168 4.26562 24.4258 4.75781 24.9414C5.25 25.4336 5.49609 26.0195 5.49609 26.6992C5.49609 27.4258 5.25 28.0352 4.75781 28.5273C4.26562 29.0195 3.65625 29.2656 2.92969 29.2656ZM25.5703 28.1055C24.2109 28.1055 23.0742 27.8008 22.1602 27.1914C21.2461 26.582 20.5078 25.7734 19.9453 24.7656C19.4062 23.7578 18.9961 22.6445 18.7148 21.4258C18.457 20.207 18.2812 18.9883 18.1875 17.7695C18.0938 16.5508 18.0469 15.4375 18.0469 14.4297C18.0469 13.5625 18.082 12.5898 18.1523 11.5117C18.2227 10.4102 18.3516 9.29688 18.5391 8.17188C18.75 7.02344 19.043 5.94531 19.418 4.9375C19.793 3.92969 20.2852 3.08594 20.8945 2.40625C21.5508 1.70312 22.2773 1.22266 23.0742 0.964844C23.8945 0.683594 24.7734 0.542969 25.7109 0.542969C27.0469 0.542969 28.1484 0.859375 29.0156 1.49219C29.9062 2.125 30.6094 2.96875 31.125 4.02344C31.6641 5.05469 32.0625 6.17969 32.3203 7.39844C32.5781 8.61719 32.7422 9.83594 32.8125 11.0547C32.9062 12.2734 32.9531 13.3633 32.9531 14.3242C32.9531 15.3086 32.9062 16.4102 32.8125 17.6289C32.7422 18.8477 32.5664 20.0781 32.2852 21.3203C32.0273 22.5391 31.6289 23.6641 31.0898 24.6953C30.5508 25.7266 29.8359 26.5586 28.9453 27.1914C28.0547 27.8008 26.9297 28.1055 25.5703 28.1055ZM25.4648 25.2578C26.2852 25.2578 26.9414 24.9766 27.4336 24.4141C27.9492 23.8281 28.3477 23.0898 28.6289 22.1992C28.9336 21.2852 29.1445 20.3359 29.2617 19.3516C29.4023 18.3438 29.4844 17.4062 29.5078 16.5391C29.5312 15.6484 29.543 14.9453 29.543 14.4297C29.543 13.9141 29.5312 13.2109 29.5078 12.3203C29.4844 11.4062 29.4023 10.4453 29.2617 9.4375C29.1445 8.40625 28.9336 7.43359 28.6289 6.51953C28.3477 5.60547 27.9375 4.85547 27.3984 4.26953C26.8828 3.68359 26.2148 3.39062 25.3945 3.39062C24.5977 3.39062 23.9531 3.68359 23.4609 4.26953C22.9688 4.85547 22.582 5.60547 22.3008 6.51953C22.0195 7.41016 21.8203 8.37109 21.7031 9.40234C21.5859 10.4102 21.5156 11.3594 21.4922 12.25C21.4688 13.1172 21.457 13.7969 21.457 14.2891C21.457 14.8047 21.4688 15.5078 21.4922 16.3984C21.5156 17.2656 21.5859 18.2148 21.7031 19.2461C21.8438 20.2539 22.0547 21.2148 22.3359 22.1289C22.6172 23.043 23.0039 23.793 23.4961 24.3789C24.0117 24.9648 24.668 25.2578 25.4648 25.2578ZM43.1836 28.1406C41.5664 28.1406 40.2539 27.8242 39.2461 27.1914C38.2383 26.5352 37.4883 25.6445 36.9961 24.5195C36.5039 23.3711 36.1992 22.0469 36.082 20.5469H39.7031C39.75 21.2969 39.8672 22.0469 40.0547 22.7969C40.2656 23.5234 40.6172 24.1211 41.1094 24.5898C41.625 25.0586 42.3398 25.293 43.2539 25.293C44.168 25.293 44.9062 25.0938 45.4688 24.6953C46.0547 24.2734 46.5 23.7344 46.8047 23.0781C47.1094 22.4219 47.3086 21.707 47.4023 20.9336C47.5195 20.1367 47.5781 19.375 47.5781 18.6484C47.5781 18.0859 47.543 17.4531 47.4727 16.75C47.4023 16.0469 47.25 15.3672 47.0156 14.7109C46.8047 14.0547 46.4766 13.5156 46.0312 13.0938C45.5859 12.6719 44.9766 12.4609 44.2031 12.4609C42.7969 12.4609 41.7773 12.9062 41.1445 13.7969C40.5352 14.6875 40.1484 15.7656 39.9844 17.0312H36.8906V1.03516H49.793V3.84766H39.9844V12.3906C40.5938 11.5938 41.2969 10.9727 42.0938 10.5273C42.8906 10.0586 43.793 9.82422 44.8008 9.82422C45.9961 9.82422 46.9922 10.1055 47.7891 10.668C48.5859 11.207 49.207 11.9219 49.6523 12.8125C50.1211 13.7031 50.4492 14.6758 50.6367 15.7305C50.8242 16.7617 50.918 17.7695 50.918 18.7539C50.918 20.5117 50.6836 22.1055 50.2148 23.5352C49.7461 24.9414 48.9492 26.0664 47.8242 26.9102C46.6992 27.7305 45.1523 28.1406 43.1836 28.1406Z" fill="#FFF9E1"/>
</svg>
