<svg width="95" height="11" viewBox="0 0 95 11" fill="none" xmlns="http://www.w3.org/2000/svg">
<path d="M2.4834 9.94922V1.95117C2.28874 2.17969 2.06445 2.38281 1.81055 2.56055C1.55664 2.72982 1.27734 2.83561 0.972656 2.87793V1.65918C1.37891 1.57454 1.70475 1.40104 1.9502 1.13867C2.2041 0.876302 2.3903 0.554688 2.50879 0.173828H3.71484V9.94922H2.4834ZM9.27539 10.0381C8.78451 10.0381 8.37402 9.92806 8.04395 9.70801C7.71387 9.48796 7.44727 9.19596 7.24414 8.83203C7.04948 8.4681 6.90137 8.06608 6.7998 7.62598C6.70671 7.18587 6.64323 6.74577 6.60938 6.30566C6.57552 5.86556 6.55859 5.46354 6.55859 5.09961C6.55859 4.78646 6.57129 4.43522 6.59668 4.0459C6.62207 3.64811 6.66862 3.24609 6.73633 2.83984C6.8125 2.42513 6.91829 2.03581 7.05371 1.67188C7.18913 1.30794 7.36686 1.00326 7.58691 0.757812C7.82389 0.503906 8.08626 0.330404 8.37402 0.237305C8.67025 0.135742 8.98763 0.0849609 9.32617 0.0849609C9.80859 0.0849609 10.2064 0.199219 10.5195 0.427734C10.8411 0.65625 11.0951 0.960938 11.2812 1.3418C11.4759 1.71419 11.6198 2.12044 11.7129 2.56055C11.806 3.00065 11.8652 3.44076 11.8906 3.88086C11.9245 4.32096 11.9414 4.71452 11.9414 5.06152C11.9414 5.41699 11.9245 5.81478 11.8906 6.25488C11.8652 6.69499 11.8018 7.13932 11.7002 7.58789C11.6071 8.02799 11.4632 8.43424 11.2686 8.80664C11.0739 9.17904 10.8158 9.47949 10.4941 9.70801C10.1725 9.92806 9.76628 10.0381 9.27539 10.0381ZM9.2373 9.00977C9.53353 9.00977 9.77051 8.9082 9.94824 8.70508C10.1344 8.49349 10.2783 8.22689 10.3799 7.90527C10.4899 7.5752 10.5661 7.23242 10.6084 6.87695C10.6592 6.51302 10.6888 6.17448 10.6973 5.86133C10.7057 5.53971 10.71 5.28581 10.71 5.09961C10.71 4.91341 10.7057 4.65951 10.6973 4.33789C10.6888 4.00781 10.6592 3.66081 10.6084 3.29688C10.5661 2.92448 10.4899 2.57324 10.3799 2.24316C10.2783 1.91309 10.1302 1.64225 9.93555 1.43066C9.74935 1.21908 9.50814 1.11328 9.21191 1.11328C8.92415 1.11328 8.69141 1.21908 8.51367 1.43066C8.33594 1.64225 8.19629 1.91309 8.09473 2.24316C7.99316 2.56478 7.92122 2.91178 7.87891 3.28418C7.83659 3.64811 7.8112 3.99089 7.80273 4.3125C7.79427 4.62565 7.79004 4.87109 7.79004 5.04883C7.79004 5.23503 7.79427 5.48893 7.80273 5.81055C7.8112 6.1237 7.83659 6.46647 7.87891 6.83887C7.92969 7.2028 8.00586 7.5498 8.10742 7.87988C8.20898 8.20996 8.34863 8.48079 8.52637 8.69238C8.71257 8.90397 8.94954 9.00977 9.2373 9.00977ZM21.6025 9.94922V0.173828H22.9229V4.28711H28.0771V0.173828H29.3975V9.94922H28.0771V5.49316H22.9229V9.94922H21.6025ZM38.5127 10.0381C37.514 10.0381 36.6803 9.8138 36.0117 9.36523C35.3516 8.91667 34.8564 8.31152 34.5264 7.5498C34.1963 6.78809 34.0312 5.94173 34.0312 5.01074C34.0312 4.06283 34.2048 3.2207 34.5518 2.48438C34.8988 1.73958 35.4108 1.1556 36.0879 0.732422C36.7734 0.300781 37.6071 0.0849609 38.5889 0.0849609C39.3167 0.0849609 39.9557 0.216146 40.5059 0.478516C41.056 0.740885 41.513 1.10482 41.877 1.57031C42.2493 2.02734 42.5244 2.56055 42.7021 3.16992C42.8883 3.77083 42.9814 4.40983 42.9814 5.08691C42.9814 6.00944 42.8122 6.84733 42.4736 7.60059C42.1351 8.34538 41.6357 8.93783 40.9756 9.37793C40.3154 9.81803 39.4945 10.0381 38.5127 10.0381ZM38.5 8.83203C39.0671 8.83203 39.5452 8.73047 39.9346 8.52734C40.3324 8.31576 40.654 8.03223 40.8994 7.67676C41.1449 7.32129 41.3226 6.91504 41.4326 6.45801C41.5426 6.00098 41.5977 5.51855 41.5977 5.01074C41.5977 4.33366 41.4876 3.71582 41.2676 3.15723C41.056 2.59017 40.7174 2.13737 40.252 1.79883C39.7865 1.46029 39.1813 1.29102 38.4365 1.29102C37.8864 1.29102 37.4167 1.39681 37.0273 1.6084C36.6465 1.81152 36.3333 2.09082 36.0879 2.44629C35.8509 2.80176 35.6774 3.20801 35.5674 3.66504C35.4574 4.11361 35.4023 4.5791 35.4023 5.06152C35.4023 5.72168 35.5039 6.33952 35.707 6.91504C35.9186 7.49056 36.2487 7.95605 36.6973 8.31152C37.1543 8.65853 37.7552 8.83203 38.5 8.83203ZM47.3232 9.94922C47.3994 9.71224 47.4925 9.40332 47.6025 9.02246C47.7126 8.63314 47.8268 8.22689 47.9453 7.80371C48.0723 7.38053 48.1992 6.99121 48.3262 6.63574C48.4531 6.28027 48.5716 6.0179 48.6816 5.84863C48.8001 5.67936 48.9398 5.53125 49.1006 5.4043C49.2614 5.27734 49.4349 5.16732 49.6211 5.07422C48.4701 4.79492 47.8945 4.06283 47.8945 2.87793C47.8945 2.21777 48.0299 1.69727 48.3008 1.31641C48.5801 0.935547 48.9567 0.664714 49.4307 0.503906C49.9046 0.343099 50.4378 0.262695 51.0303 0.262695H55.3467V9.94922H54.0518V5.62012H51.3223C51.0599 5.62012 50.7975 5.66243 50.5352 5.74707C50.2728 5.82324 50.0527 5.95866 49.875 6.15332C49.7819 6.26335 49.6888 6.43685 49.5957 6.67383C49.5026 6.91081 49.4095 7.18164 49.3164 7.48633C49.2318 7.79102 49.1514 8.10417 49.0752 8.42578C49.0075 8.73893 48.9398 9.03092 48.8721 9.30176C48.8128 9.57259 48.762 9.78841 48.7197 9.94922H47.3232ZM51.1191 4.43945H54.0518V1.44336H51.1826C50.8525 1.44336 50.5352 1.48568 50.2305 1.57031C49.9342 1.64648 49.693 1.78613 49.5068 1.98926C49.3206 2.19238 49.2275 2.48861 49.2275 2.87793C49.2275 3.26725 49.3122 3.57617 49.4814 3.80469C49.6507 4.0332 49.875 4.19824 50.1543 4.2998C50.4421 4.3929 50.7637 4.43945 51.1191 4.43945ZM60.9707 9.86035V0.262695H66.9629V1.44336H62.2656V4.24902H64.8047C65.4395 4.24902 65.998 4.34212 66.4805 4.52832C66.9629 4.70605 67.3353 5.00228 67.5977 5.41699C67.8685 5.82324 68.0039 6.36914 68.0039 7.05469C68.0039 7.73177 67.8685 8.27767 67.5977 8.69238C67.3353 9.1071 66.9629 9.40755 66.4805 9.59375C65.998 9.77148 65.4395 9.86035 64.8047 9.86035H60.9707ZM62.2656 8.67969H64.5635C64.9613 8.67969 65.3167 8.6416 65.6299 8.56543C65.9515 8.48079 66.2054 8.32422 66.3916 8.0957C66.5778 7.85872 66.6709 7.51172 66.6709 7.05469C66.6709 6.58919 66.5778 6.24219 66.3916 6.01367C66.2054 5.78516 65.9515 5.63281 65.6299 5.55664C65.3167 5.47201 64.9613 5.42969 64.5635 5.42969H62.2656V8.67969ZM74.3008 9.94922V0.262695H77.9189C78.5622 0.262695 79.1419 0.347331 79.6582 0.516602C80.1745 0.685872 80.585 0.973633 80.8896 1.37988C81.2028 1.78613 81.3594 2.34896 81.3594 3.06836C81.3594 3.7793 81.2028 4.33789 80.8896 4.74414C80.585 5.15039 80.1745 5.43815 79.6582 5.60742C79.1419 5.77669 78.5622 5.86133 77.9189 5.86133H75.5957V9.94922H74.3008ZM75.5957 4.65527H77.665C78.0544 4.65527 78.4268 4.62142 78.7822 4.55371C79.1462 4.486 79.4424 4.34212 79.6709 4.12207C79.8994 3.89355 80.0137 3.53809 80.0137 3.05566C80.0137 2.69173 79.946 2.40397 79.8105 2.19238C79.6751 1.98079 79.4932 1.82422 79.2646 1.72266C79.0446 1.61263 78.7949 1.54492 78.5156 1.51953C78.2363 1.48568 77.9528 1.46875 77.665 1.46875H75.5957V4.65527ZM86.3232 9.94922C86.3994 9.71224 86.4925 9.40332 86.6025 9.02246C86.7126 8.63314 86.8268 8.22689 86.9453 7.80371C87.0723 7.38053 87.1992 6.99121 87.3262 6.63574C87.4531 6.28027 87.5716 6.0179 87.6816 5.84863C87.8001 5.67936 87.9398 5.53125 88.1006 5.4043C88.2614 5.27734 88.4349 5.16732 88.6211 5.07422C87.4701 4.79492 86.8945 4.06283 86.8945 2.87793C86.8945 2.21777 87.0299 1.69727 87.3008 1.31641C87.5801 0.935547 87.9567 0.664714 88.4307 0.503906C88.9046 0.343099 89.4378 0.262695 90.0303 0.262695H94.3467V9.94922H93.0518V5.62012H90.3223C90.0599 5.62012 89.7975 5.66243 89.5352 5.74707C89.2728 5.82324 89.0527 5.95866 88.875 6.15332C88.7819 6.26335 88.6888 6.43685 88.5957 6.67383C88.5026 6.91081 88.4095 7.18164 88.3164 7.48633C88.2318 7.79102 88.1514 8.10417 88.0752 8.42578C88.0075 8.73893 87.9398 9.03092 87.8721 9.30176C87.8128 9.57259 87.762 9.78841 87.7197 9.94922H86.3232ZM90.1191 4.43945H93.0518V1.44336H90.1826C89.8525 1.44336 89.5352 1.48568 89.2305 1.57031C88.9342 1.64648 88.693 1.78613 88.5068 1.98926C88.3206 2.19238 88.2275 2.48861 88.2275 2.87793C88.2275 3.26725 88.3122 3.57617 88.4814 3.80469C88.6507 4.0332 88.875 4.19824 89.1543 4.2998C89.4421 4.3929 89.7637 4.43945 90.1191 4.43945Z" fill="#FFF9E1"/>
</svg>
