<svg width="884" height="879" viewBox="0 0 884 879" fill="none" xmlns="http://www.w3.org/2000/svg">
<path d="M232.043 704.601L154.578 693.27L138.76 695.658L133.156 717.019L145.244 755.52L162.348 791.843L192.724 812.619L248.962 804.454L267.688 764.346L251.072 727.309L232.043 704.601Z" fill="#FFF9E1"/>
<path d="M328.134 72.7857L302.458 69.0301L297.215 69.8215L295.358 76.9016L299.364 89.6629L305.033 101.702L315.102 108.589L333.742 105.882L339.949 92.5883L334.441 80.3123L328.134 72.7857Z" fill="#FFF9E1"/>
<path d="M329.737 54.8574L329.505 41.7751L328.683 39.2312L325.008 38.8861L318.987 41.9233L313.46 45.7289L310.857 51.3016L313.728 60.3548L320.851 62.3557L326.508 58.6113L329.737 54.8574Z" fill="#FFF9E1"/>
<path d="M130.891 237.146L130.66 224.064L129.837 221.52L126.163 221.175L120.141 224.212L114.614 228.018L112.012 233.591L114.883 242.644L122.005 244.645L127.662 240.9L130.891 237.146Z" fill="#FFF9E1"/>
<path d="M49.2584 479.302L20.0375 475.028L14.0708 475.928L11.9568 483.986L16.5164 498.509L22.9685 512.211L34.4268 520.048L55.6407 516.968L62.7045 501.838L56.4367 487.868L49.2584 479.302Z" fill="#FFF9E1"/>
<path d="M95.2069 353.158L76.9968 350.494L73.2785 351.055L71.961 356.077L74.8025 365.127L78.8234 373.666L85.9641 378.55L99.1843 376.631L103.586 367.202L99.6803 358.496L95.2069 353.158Z" fill="#FFF9E1"/>
<path d="M51.6554 402.266L97.1068 395.618L106.388 397.019L109.676 409.552L102.584 432.142L92.5478 453.454L74.7251 465.644L41.7281 460.853L30.7408 437.32L40.4901 415.59L51.6554 402.266Z" fill="#FFF9E1"/>
<path d="M185.294 112.746L230.745 106.098L240.026 107.499L243.315 120.032L236.222 142.622L226.187 163.934L208.364 176.124L175.367 171.334L164.379 147.801L174.129 126.07L185.294 112.746Z" fill="#FFF9E1"/>
<path d="M163.916 179.502L172.37 193.867L173.169 197.178L169.407 199.998L160.844 200.706L152.308 200.249L145.773 195.928L142.867 184.182L149.273 177.269L157.91 177.572L163.916 179.502Z" fill="#FFF9E1"/>
<path d="M155.03 628.978L139.316 644.851L154.695 669.917L184.557 676.511L204.339 683.552L220.51 668.417L220.246 652.189L155.03 628.978Z" fill="#FFF9E1"/>
<path d="M122.728 635.312L103.093 624.666L83.3304 646.443L85.3535 676.958L84.1283 697.92L103.182 709.211L118.689 704.418L122.728 635.312Z" fill="#FFF9E1"/>
<path d="M104.332 310.03L100.976 294.945L80.6337 294.514L65.6205 309.424L54.1201 318.301L56.8755 333.375L66.4182 339.296L104.332 310.03Z" fill="#FFF9E1"/>
<path d="M292.657 88.3L290.419 78.2417L276.855 77.9543L266.845 87.8958L259.177 93.8147L261.014 103.866L267.377 107.813L292.657 88.3Z" fill="#FFF9E1"/>
<path d="M150.992 228.594L156.215 226.88L155.657 219.664L149.855 214.87L146.312 211.109L141.072 212.61L139.309 216.195L150.992 228.594Z" fill="#FFF9E1"/>
<path d="M113.404 220.328L111.848 213.331L102.412 213.132L95.449 220.047L90.115 224.164L91.393 231.156L95.819 233.902L113.404 220.328Z" fill="#FFF9E1"/>
<path d="M276.298 122.64L270.276 114.279L257.697 119.362L252.417 132.445L247.704 140.908L253.355 149.42L260.758 150.54L276.298 122.64Z" fill="#FFF9E1"/>
<path d="M49.2584 479.302L20.0375 475.028L14.0708 475.928L11.9568 483.986L16.5164 498.509L22.9685 512.211L34.4268 520.048L55.6407 516.968L62.7045 501.838L56.4367 487.868L49.2584 479.302Z" fill="#FFF9E1"/>
<path d="M77.59 528H60.8832L51.0163 540.065L30.0005 579.533L69.2531 624L126.048 594.528L129 579.533L77.59 528Z" fill="#FFF9E1"/>
<path d="M46.6321 342H39.0381L34.5531 347.907L25.0005 367.23L42.8426 389L68.6584 374.571L70.0005 367.23L46.6321 342Z" fill="#FFF9E1"/>
<path d="M574.744 78.8065L582.598 50.3381L585.825 45.2392L594.052 46.5486L605.51 56.5701L615.453 67.9931L618.013 81.6372L606.652 99.8152L589.959 100.189L579.695 88.8262L574.744 78.8065Z" fill="#FFF9E1"/>
<path d="M440.807 70.0341L445.701 52.293L447.712 49.1154L452.839 49.9314L459.979 56.1767L466.176 63.2953L467.771 71.7981L460.691 83.1264L450.288 83.3594L443.892 76.2782L440.807 70.0341Z" fill="#FFF9E1"/>
<path d="M503.278 49.9728L478.891 88.8998L476.436 97.9591L486.584 106.016L510.118 108.62L533.667 108.015L552.001 96.6095L560.903 64.4768L543.786 44.9437L519.969 45.1175L503.278 49.9728Z" fill="#FFF9E1"/>
<path d="M574.744 78.8065L582.598 50.3381L585.825 45.2392L594.052 46.5486L605.51 56.5701L615.453 67.9931L618.013 81.6372L606.652 99.8152L589.959 100.189L579.695 88.8262L574.744 78.8065Z" fill="#FFF9E1"/>
<path d="M608.642 124.293L615.253 109.264L630.079 105.193L674.126 102.007L698.849 155.024L649.694 194.376L634.951 191.061L608.642 124.293Z" fill="#FFF9E1"/>
<path d="M450.867 20.1148L453.973 13.0533L460.932 11.1368L481.602 9.62779L493.189 34.5264L470.112 53.0258L463.194 51.4724L450.867 20.1148Z" fill="#FFF9E1"/>
<path d="M96.5935 243H88.662L83.9777 249.284L74.0005 269.84L92.6356 293L119.599 277.65L121 269.84L96.5935 243Z" fill="#FFF9E1"/>
<path d="M809.946 539.566L810.177 526.484L811 523.94L814.674 523.595L820.696 526.632L826.223 530.438L828.825 536.011L825.954 545.064L818.832 547.065L813.175 543.32L809.946 539.566Z" fill="#FFF9E1"/>
<path d="M642.451 781.615L662.494 803.305L665.123 808.736L659.671 815.034L645.114 819.482L630.164 821.904L617.222 816.881L607.772 797.64L616.26 783.262L631.328 780.535L642.451 781.615Z" fill="#FFF9E1"/>
<path d="M720.581 672.442L733.071 685.958L734.71 689.343L731.312 693.268L722.24 696.04L712.923 697.549L704.858 694.419L698.969 682.429L704.259 673.468L713.649 671.769L720.581 672.442Z" fill="#FFF9E1"/>
<path d="M704.648 736.101L684.442 694.849L678.04 687.985L665.843 692.357L651.216 710.976L639.308 731.301L639.326 752.894L661.929 777.406L687.553 773.168L699.968 752.843L704.648 736.101Z" fill="#FFF9E1"/>
<path d="M751 640.556L765.341 634.798L777.195 651.336L773.381 672.148L772.559 686.653L758.566 692.9L748.289 688.374L751 640.556Z" fill="#FFF9E1"/>
<path d="M642.451 781.615L662.494 803.305L665.123 808.736L659.671 815.034L645.114 819.482L630.164 821.904L617.222 816.881L607.772 797.64L616.26 783.262L631.328 780.535L642.451 781.615Z" fill="#FFF9E1"/>
<path d="M757.675 707.325L762.036 713.689L759.993 720.612L750.372 738.968L723.107 735.678L719.564 706.314L724.532 701.257L757.675 707.325Z" fill="#FFF9E1"/>
<path d="M805.513 609.179L809.874 615.543L807.831 622.465L798.21 640.822L770.945 637.531L767.402 608.168L772.37 603.11L805.513 609.179Z" fill="#FFF9E1"/>
<path d="M360.636 119.451L364.409 117.273L365.054 113.244L364.621 101.534L349.923 96.5459L340.964 110.649L342.265 114.442L360.636 119.451Z" fill="#FFF9E1"/>
<path d="M133.242 209.709L137.015 207.53L137.66 203.502L137.227 191.792L122.528 186.804L113.57 200.907L114.87 204.7L133.242 209.709Z" fill="#FFF9E1"/>
<path d="M821.555 261.827L752.594 236.999L724.228 246.753L718.007 254.61L737.246 278.567L764.663 305.473L796.494 316.874L811.608 323.755L827.491 319.652L821.555 261.827Z" fill="#FFF9E1"/>
<path d="M421.844 809.225L352.883 784.398L324.517 794.151L318.296 802.009L337.535 825.965L364.952 852.872L396.783 864.273L411.897 871.153L427.78 867.051L421.844 809.225Z" fill="#FFF9E1"/>
<path d="M808.924 583.506L796.198 543.054L781.77 533.409L775.973 533.297L771.681 550.548L768.896 572.598L774.797 591.25L776.924 600.619L784.377 606.496L808.924 583.506Z" fill="#FFF9E1"/>
<path d="M311.94 823.799L299.214 783.347L284.786 773.702L278.988 773.59L274.697 790.841L271.912 812.891L277.813 831.542L279.939 840.912L287.392 846.789L311.94 823.799Z" fill="#FFF9E1"/>
<path d="M389.744 21H374.388L365.318 31.9336L346 67.702L382.081 108L434.286 81.2908L437 67.702L389.744 21Z" fill="#FFF9E1"/>
<path d="M512.181 821.801L486.505 818.046L481.262 818.837L479.405 825.917L483.411 838.679L489.08 850.718L499.149 857.604L517.789 854.898L523.996 841.604L518.488 829.328L512.181 821.801Z" fill="#FFF9E1"/>
<path d="M513.798 803.869L513.566 790.787L512.743 788.243L509.069 787.898L503.047 790.935L497.521 794.741L494.918 800.313L497.789 809.367L504.911 811.367L510.569 807.623L513.798 803.869Z" fill="#FFF9E1"/>
<path d="M476.672 837.314L474.435 827.255L460.871 826.968L450.86 836.91L443.192 842.828L445.03 852.879L451.392 856.827L476.672 837.314Z" fill="#FFF9E1"/>
<path d="M544.683 868.463L548.456 866.284L549.101 862.256L548.668 850.546L533.969 845.558L525.011 859.661L526.312 863.453L544.683 868.463Z" fill="#FFF9E1"/>
<path d="M576.225 770H560.7L551.53 781.185L532 817.776L568.478 859L621.257 831.677L624 817.776L576.225 770Z" fill="#FFF9E1"/>
<path d="M831.515 406.515L836.553 381.06L836.026 375.784L829.048 373.574L816.101 376.935L803.793 381.993L796.41 391.704L798.178 410.456L811.145 417.322L823.681 412.437L831.515 406.515Z" fill="#FFF9E1"/>
<path d="M849.325 409.008L862.402 409.432L864.984 408.738L865.513 405.086L862.782 398.919L859.258 393.209L853.823 390.33L844.637 392.743L842.282 399.756L845.737 405.594L849.325 409.008Z" fill="#FFF9E1"/>
<path d="M817.788 370.286L827.946 368.556L828.913 355.023L819.486 344.527L813.959 336.572L803.828 337.903L799.567 344.06L817.788 370.286Z" fill="#FFF9E1"/>
<path d="M783.28 436.635L785.266 440.512L789.257 441.359L800.974 441.514L806.693 427.083L793.057 417.429L789.204 418.538L783.28 436.635Z" fill="#FFF9E1"/>
<path d="M881.148 471.877L881.922 456.467L871.197 446.805L835.591 425.584L792.562 459.72L817.246 513.477L831.006 516.898L881.148 471.877Z" fill="#FFF9E1"/>
<path d="M725.593 182H717.662L712.978 188.032L703 207.767L721.636 230L748.599 215.264L750 207.767L725.593 182Z" fill="#FFF9E1"/>
<path d="M725.741 137.668L720.09 131.311L712.129 131.666L689.892 137.115L686.124 167.201L716.631 178.773L723.377 174.788L725.741 137.668Z" fill="#FFF9E1"/>
</svg>
