<svg width="439" height="437" viewBox="0 0 439 437" fill="none" xmlns="http://www.w3.org/2000/svg">
<path d="M115.615 349.756L77.2685 344.147L69.4385 345.329L66.6642 355.903L72.6478 374.962L81.1147 392.942L96.1514 403.227L123.99 399.185L133.26 379.331L125.035 360.997L115.615 349.756Z" fill="#FFF9E1"/>
<path d="M163.182 36.998L150.472 35.1389L147.877 35.5306L146.957 39.0354L148.94 45.3525L151.747 51.3121L156.731 54.7209L165.958 53.3813L169.03 46.8006L166.304 40.7238L163.182 36.998Z" fill="#FFF9E1"/>
<path d="M163.978 28.1226L163.863 21.6467L163.456 20.3874L161.637 20.2166L158.656 21.7201L155.92 23.6039L154.632 26.3625L156.053 30.8439L159.579 31.8344L162.379 29.9809L163.978 28.1226Z" fill="#FFF9E1"/>
<path d="M65.5422 118.361L65.4276 111.885L65.0204 110.626L63.2014 110.455L60.2205 111.958L57.4848 113.842L56.1965 116.601L57.6177 121.082L61.1433 122.073L63.9438 120.219L65.5422 118.361Z" fill="#FFF9E1"/>
<path d="M25.1379 238.231L10.6731 236.115L7.71946 236.561L6.67297 240.55L8.93007 247.739L12.1239 254.521L17.796 258.401L28.2972 256.876L31.7939 249.387L28.6912 242.471L25.1379 238.231Z" fill="#FFF9E1"/>
<path d="M47.8769 175.786L38.8626 174.468L37.022 174.746L36.3698 177.231L37.7764 181.712L39.7668 185.938L43.3015 188.356L49.8457 187.406L52.0248 182.739L50.0913 178.429L47.8769 175.786Z" fill="#FFF9E1"/>
<path d="M26.3258 200.097L48.8249 196.806L53.4191 197.5L55.0468 203.704L51.536 214.886L46.5682 225.436L37.7456 231.47L21.4116 229.099L15.9727 217.45L20.7988 206.693L26.3258 200.097Z" fill="#FFF9E1"/>
<path d="M92.4742 56.7788L114.973 53.4879L119.568 54.1813L121.195 60.3855L117.684 71.5678L112.717 82.1176L103.894 88.1519L87.5601 85.7805L82.1212 74.1313L86.9472 63.3742L92.4742 56.7788Z" fill="#FFF9E1"/>
<path d="M81.8952 89.8242L86.08 96.9355L86.4756 98.5744L84.6133 99.9704L80.3746 100.321L76.1492 100.095L72.9139 97.9553L71.4758 92.1412L74.6466 88.7192L78.9223 88.8692L81.8952 89.8242Z" fill="#FFF9E1"/>
<path d="M77.4931 312.322L69.7143 320.179L77.3274 332.587L92.1097 335.852L101.902 339.337L109.907 331.845L109.776 323.811L77.4931 312.322Z" fill="#FFF9E1"/>
<path d="M61.4922 315.458L51.7725 310.187L41.9896 320.968L42.9911 336.073L42.3845 346.449L51.8164 352.038L59.4927 349.666L61.4922 315.458Z" fill="#FFF9E1"/>
<path d="M52.3866 154.438L50.7254 146.97L40.6554 146.757L33.2237 154.138L27.5308 158.532L28.8948 165.994L33.6186 168.924L52.3866 154.438Z" fill="#FFF9E1"/>
<path d="M145.62 44.6787L144.513 39.6996L137.798 39.5574L132.843 44.4786L129.047 47.4085L129.957 52.3839L133.106 54.338L145.62 44.6787Z" fill="#FFF9E1"/>
<path d="M75.4856 114.124L78.071 113.275L77.7951 109.703L74.9231 107.33L73.1689 105.468L70.5751 106.212L69.7025 107.986L75.4856 114.124Z" fill="#FFF9E1"/>
<path d="M56.8823 110.034L56.1118 106.57L51.4412 106.471L47.9942 109.895L45.3538 111.933L45.9864 115.394L48.1774 116.753L56.8823 110.034Z" fill="#FFF9E1"/>
<path d="M137.527 61.677L134.546 57.538L128.319 60.0544L125.706 66.5306L123.372 70.7198L126.17 74.9336L129.835 75.4876L137.527 61.677Z" fill="#FFF9E1"/>
<path d="M25.1379 238.231L10.6731 236.115L7.71946 236.561L6.67297 240.55L8.93007 247.739L12.1239 254.521L17.796 258.401L28.2972 256.876L31.7939 249.387L28.6912 242.471L25.1379 238.231Z" fill="#FFF9E1"/>
<path d="M39.0356 262H30.5978L25.6145 267.907L15.0005 287.23L34.8251 309L63.5093 294.571L65.0005 287.23L39.0356 262Z" fill="#FFF9E1"/>
<path d="M23.5759 170H19.8633L17.6707 172.89L13.0005 182.347L21.7233 193L34.3443 185.939L35.0005 182.347L23.5759 170Z" fill="#FFF9E1"/>
<path d="M285.259 39.9792L289.147 25.8869L290.744 23.3628L294.817 24.011L300.488 28.9718L305.411 34.6264L306.678 41.3804L301.054 50.3788L292.791 50.5638L287.709 44.9391L285.259 39.9792Z" fill="#FFF9E1"/>
<path d="M218.948 35.6354L221.371 26.8533L222.367 25.2804L224.905 25.6843L228.439 28.7758L231.507 32.2997L232.296 36.5087L228.792 42.1163L223.642 42.2317L220.476 38.7264L218.948 35.6354Z" fill="#FFF9E1"/>
<path d="M249.883 25.704L237.811 44.9735L236.596 49.4579L241.619 53.446L253.269 54.7351L264.926 54.4358L274.002 48.7898L278.408 32.8836L269.935 23.2145L258.145 23.3005L249.883 25.704Z" fill="#FFF9E1"/>
<path d="M285.259 39.9792L289.147 25.8869L290.744 23.3628L294.817 24.011L300.488 28.9718L305.411 34.6264L306.678 41.3804L301.054 50.3788L292.791 50.5638L287.709 44.9391L285.259 39.9792Z" fill="#FFF9E1"/>
<path d="M302.038 62.4955L305.311 55.0563L312.65 53.041L334.454 51.4636L346.692 77.708L322.36 97.1878L315.062 95.5466L302.038 62.4955Z" fill="#FFF9E1"/>
<path d="M223.937 10.9259L225.474 7.43033L228.919 6.48164L239.151 5.73465L244.887 18.0598L233.463 27.2173L230.039 26.4484L223.937 10.9259Z" fill="#FFF9E1"/>
<path d="M49.0566 122H45.1753L42.8829 124.89L38.0005 134.347L47.1198 145L60.3145 137.939L61.0005 134.347L49.0566 122Z" fill="#FFF9E1"/>
<path d="M401.687 268.064L401.802 261.588L402.209 260.329L404.028 260.158L407.009 261.661L409.745 263.545L411.033 266.304L409.612 270.785L406.086 271.776L403.286 269.922L401.687 268.064Z" fill="#FFF9E1"/>
<path d="M318.769 387.879L328.691 398.616L329.992 401.304L327.293 404.422L320.087 406.624L312.687 407.823L306.28 405.336L301.602 395.812L305.804 388.694L313.263 387.344L318.769 387.879Z" fill="#FFF9E1"/>
<path d="M357.444 333.837L363.627 340.528L364.438 342.203L362.756 344.146L358.265 345.518L353.653 346.265L349.661 344.716L346.746 338.78L349.364 334.345L354.012 333.504L357.444 333.837Z" fill="#FFF9E1"/>
<path d="M349.562 365.349L339.559 344.928L336.39 341.531L330.352 343.695L323.112 352.911L317.217 362.973L317.226 373.661L328.415 385.795L341.099 383.698L347.245 373.636L349.562 365.349Z" fill="#FFF9E1"/>
<path d="M372.506 318.053L379.605 315.203L385.473 323.389L383.585 333.692L383.178 340.872L376.251 343.964L371.164 341.724L372.506 318.053Z" fill="#FFF9E1"/>
<path d="M318.769 387.879L328.691 398.616L329.992 401.304L327.293 404.422L320.087 406.624L312.687 407.823L306.28 405.336L301.602 395.812L305.804 388.694L313.263 387.344L318.769 387.879Z" fill="#FFF9E1"/>
<path d="M375.805 351.105L377.964 354.255L376.952 357.682L372.19 366.768L358.693 365.139L356.939 350.604L359.399 348.101L375.805 351.105Z" fill="#FFF9E1"/>
<path d="M399.489 302.521L401.647 305.671L400.636 309.098L395.873 318.184L382.377 316.555L380.623 302.02L383.082 299.517L399.489 302.521Z" fill="#FFF9E1"/>
<path d="M179.269 60.0988L181.136 59.0205L181.455 57.0264L181.241 51.2297L173.965 48.7605L169.53 55.7417L170.174 57.6192L179.269 60.0988Z" fill="#FFF9E1"/>
<path d="M66.708 104.778L68.5756 103.7L68.8949 101.706L68.6806 95.9094L61.4044 93.4402L56.9698 100.421L57.6137 102.299L66.708 104.778Z" fill="#FFF9E1"/>
<path d="M407.438 130.576L373.301 118.286L359.26 123.114L356.18 127.003L365.704 138.862L379.276 152.182L395.033 157.825L402.514 161.231L410.377 159.2L407.438 130.576Z" fill="#FFF9E1"/>
<path d="M209.577 401.549L175.44 389.259L161.399 394.087L158.319 397.976L167.843 409.835L181.414 423.154L197.171 428.798L204.653 432.204L212.515 430.173L209.577 401.549Z" fill="#FFF9E1"/>
<path d="M401.181 289.813L394.881 269.789L387.739 265.015L384.869 264.959L382.745 273.499L381.366 284.414L384.287 293.647L385.34 298.285L389.029 301.194L401.181 289.813Z" fill="#FFF9E1"/>
<path d="M155.165 408.763L148.865 388.738L141.723 383.964L138.853 383.908L136.729 392.448L135.35 403.363L138.272 412.596L139.324 417.234L143.014 420.143L155.165 408.763Z" fill="#FFF9E1"/>
<path d="M194.151 11H186.726L182.341 16.4039L173 34.0826L190.446 54L215.688 40.7989L217 34.0826L194.151 11Z" fill="#FFF9E1"/>
<path d="M254.287 407.771L241.577 405.912L238.982 406.304L238.063 409.809L240.046 416.126L242.852 422.086L247.836 425.494L257.063 424.155L260.136 417.574L257.41 411.497L254.287 407.771Z" fill="#FFF9E1"/>
<path d="M255.079 398.896L254.965 392.42L254.558 391.161L252.738 390.99L249.758 392.494L247.022 394.377L245.734 397.136L247.155 401.617L250.68 402.608L253.481 400.754L255.079 398.896Z" fill="#FFF9E1"/>
<path d="M236.712 415.452L235.604 410.473L228.89 410.331L223.935 415.252L220.139 418.182L221.048 423.157L224.198 425.111L236.712 415.452Z" fill="#FFF9E1"/>
<path d="M270.374 430.872L272.242 429.794L272.561 427.8L272.347 422.003L265.07 419.534L260.636 426.515L261.28 428.393L270.374 430.872Z" fill="#FFF9E1"/>
<path d="M286.151 382H278.726L274.341 387.53L265 405.619L282.446 426L307.688 412.492L309 405.619L286.151 382Z" fill="#FFF9E1"/>
<path d="M412.359 202.2L414.853 189.6L414.592 186.988L411.138 185.894L404.729 187.558L398.636 190.062L394.982 194.869L395.857 204.151L402.276 207.55L408.481 205.132L412.359 202.2Z" fill="#FFF9E1"/>
<path d="M421.176 203.434L427.65 203.644L428.928 203.301L429.19 201.493L427.837 198.44L426.093 195.614L423.403 194.188L418.856 195.383L417.69 198.855L419.4 201.745L421.176 203.434Z" fill="#FFF9E1"/>
<path d="M405.572 184.265L410.6 183.408L411.079 176.709L406.412 171.513L403.676 167.575L398.661 168.234L396.552 171.282L405.572 184.265Z" fill="#FFF9E1"/>
<path d="M388.487 217.107L389.47 219.026L391.446 219.445L397.246 219.522L400.077 212.379L393.327 207.6L391.419 208.149L388.487 217.107Z" fill="#FFF9E1"/>
<path d="M436.937 234.553L437.32 226.925L432.011 222.142L414.386 211.637L393.085 228.535L405.304 255.145L412.116 256.839L436.937 234.553Z" fill="#FFF9E1"/>
<path d="M361.057 89H357.175L354.883 92.2675L350 102.957L359.12 115L372.315 107.018L373 102.957L361.057 89Z" fill="#FFF9E1"/>
<path d="M359.998 69.1168L357.2 65.9698L353.259 66.1457L342.252 68.8431L340.387 83.7362L355.488 89.4644L358.827 87.4919L359.998 69.1168Z" fill="#FFF9E1"/>
</svg>
