<svg width="623" height="619" viewBox="0 0 623 619" fill="none" xmlns="http://www.w3.org/2000/svg">
<path d="M164.061 495.473L109.587 487.505L98.4643 489.184L94.5233 504.205L103.023 531.279L115.051 556.822L136.412 571.432L175.959 565.69L189.127 537.486L177.443 511.441L164.061 495.473Z" fill="#FFF9E1"/>
<path d="M231.63 51.1785L213.575 48.5375L209.888 49.094L208.582 54.0728L211.399 63.0466L215.386 71.5128L222.466 76.3552L235.574 74.4522L239.939 65.1038L236.066 56.4712L231.63 51.1785Z" fill="#FFF9E1"/>
<path d="M232.762 38.5714L232.599 29.3719L232.021 27.583L229.437 27.3403L225.202 29.4762L221.316 32.1522L219.486 36.071L221.505 42.4372L226.513 43.8442L230.491 41.2112L232.762 38.5714Z" fill="#FFF9E1"/>
<path d="M92.926 166.758L92.7632 157.558L92.1847 155.77L89.6007 155.527L85.3662 157.663L81.4799 160.339L79.6497 164.258L81.6687 170.624L86.677 172.031L90.6554 169.398L92.926 166.758Z" fill="#FFF9E1"/>
<path d="M35.5303 337.042L14.982 334.036L10.7862 334.67L9.2996 340.336L12.506 350.549L17.0431 360.184L25.1006 365.695L40.0183 363.529L44.9856 352.89L40.578 343.066L35.5303 337.042Z" fill="#FFF9E1"/>
<path d="M67.8317 248.337L55.0263 246.464L52.4116 246.859L51.4851 250.39L53.4833 256.754L56.3108 262.759L61.3321 266.193L70.6286 264.844L73.7242 258.213L70.9774 252.091L67.8317 248.337Z" fill="#FFF9E1"/>
<path d="M37.208 282.871L69.1696 278.196L75.6959 279.181L78.0082 287.995L73.0209 303.88L65.9637 318.867L53.4307 327.439L30.2271 324.07L22.5007 307.522L29.3565 292.24L37.208 282.871Z" fill="#FFF9E1"/>
<path d="M131.183 79.2774L163.144 74.6024L169.67 75.5875L171.983 84.4009L166.996 100.286L159.938 115.273L147.405 123.845L124.202 120.476L116.475 103.928L123.331 88.6466L131.183 79.2774Z" fill="#FFF9E1"/>
<path d="M116.151 126.221L122.096 136.323L122.658 138.651L120.012 140.634L113.991 141.132L107.988 140.811L103.392 137.771L101.349 129.512L105.854 124.651L111.928 124.864L116.151 126.221Z" fill="#FFF9E1"/>
<path d="M109.902 442.295L98.8515 453.457L109.666 471.084L130.666 475.721L144.576 480.672L155.948 470.029L155.762 458.617L109.902 442.295Z" fill="#FFF9E1"/>
<path d="M87.1797 446.751L73.3723 439.264L59.4749 454.578L60.8976 476.036L60.036 490.776L73.4346 498.716L84.3393 495.346L87.1797 446.751Z" fill="#FFF9E1"/>
<path d="M74.2467 218.01L71.8869 207.402L57.5818 207.099L47.0245 217.583L38.9374 223.826L40.875 234.426L47.5854 238.589L74.2467 218.01Z" fill="#FFF9E1"/>
<path d="M206.681 62.0877L205.107 55.0147L195.569 54.8125L188.53 61.8035L183.137 65.9657L184.429 73.0336L188.904 75.8095L206.681 62.0877Z" fill="#FFF9E1"/>
<path d="M107.055 160.742L110.727 159.537L110.336 154.462L106.256 151.091L103.764 148.446L100.079 149.502L98.8395 152.023L107.055 160.742Z" fill="#FFF9E1"/>
<path d="M80.6288 154.933L79.5343 150.012L72.8994 149.872L68.0027 154.735L64.2518 157.63L65.1505 162.547L68.2629 164.478L80.6288 154.933Z" fill="#FFF9E1"/>
<path d="M195.183 86.2354L190.949 80.3556L182.103 83.9303L178.39 93.1303L175.076 99.0812L179.05 105.067L184.256 105.854L195.183 86.2354Z" fill="#FFF9E1"/>
<path d="M35.5303 337.042L14.982 334.036L10.7862 334.67L9.2996 340.336L12.506 350.549L17.0431 360.184L25.1006 365.695L40.0183 363.529L44.9856 352.89L40.578 343.066L35.5303 337.042Z" fill="#FFF9E1"/>
<path d="M55.1689 371H43.5248L36.6479 379.42L22.0005 406.966L49.3584 438L88.9426 417.431L91.0005 406.966L55.1689 371Z" fill="#FFF9E1"/>
<path d="M32.9022 241H27.6708L24.5812 245.022L18.0005 258.178L30.2917 273L48.0759 263.176L49.0005 258.178L32.9022 241Z" fill="#FFF9E1"/>
<path d="M405.039 55.4114L410.562 35.3923L412.831 31.8067L418.616 32.7275L426.673 39.7747L433.666 47.8074L435.466 57.402L427.477 70.1848L415.738 70.4477L408.52 62.4573L405.039 55.4114Z" fill="#FFF9E1"/>
<path d="M310.861 49.243L314.302 36.7674L315.717 34.5329L319.322 35.1067L324.343 39.4984L328.701 44.5043L329.822 50.4835L324.844 58.4496L317.528 58.6134L313.03 53.6339L310.861 49.243Z" fill="#FFF9E1"/>
<path d="M354.787 35.1349L337.638 62.5085L335.912 68.879L343.048 74.5444L359.597 76.3757L376.157 75.9504L389.05 67.9299L395.309 45.3341L383.273 31.5984L366.524 31.7206L354.787 35.1349Z" fill="#FFF9E1"/>
<path d="M405.039 55.4114L410.562 35.3923L412.831 31.8067L418.616 32.7275L426.673 39.7747L433.666 47.8074L435.466 57.402L427.477 70.1848L415.738 70.4477L408.52 62.4573L405.039 55.4114Z" fill="#FFF9E1"/>
<path d="M428.883 87.398L433.532 76.83L443.958 73.9672L474.932 71.7264L492.317 109.008L457.751 136.681L447.384 134.349L428.883 87.398Z" fill="#FFF9E1"/>
<path d="M317.934 14.1399L320.119 9.17425L325.012 7.82656L339.547 6.76542L347.695 24.2742L331.467 37.2831L326.603 36.1907L317.934 14.1399Z" fill="#FFF9E1"/>
<path d="M69.3443 172H63.6067L60.218 176.022L53.0005 189.178L66.4812 204L85.9865 194.176L87.0005 189.178L69.3443 172Z" fill="#FFF9E1"/>
<path d="M570.442 379.42L570.605 370.221L571.183 368.432L573.767 368.189L578.002 370.325L581.888 373.001L583.718 376.92L581.699 383.286L576.691 384.693L572.713 382.06L570.442 379.42Z" fill="#FFF9E1"/>
<path d="M452.653 549.63L466.747 564.882L468.596 568.701L464.762 573.13L454.525 576.258L444.012 577.961L434.912 574.429L428.266 560.899L434.235 550.788L444.831 548.871L452.653 549.63Z" fill="#FFF9E1"/>
<path d="M507.593 472.859L516.376 482.364L517.529 484.744L515.139 487.504L508.76 489.453L502.208 490.514L496.537 488.313L492.396 479.881L496.115 473.58L502.718 472.385L507.593 472.859Z" fill="#FFF9E1"/>
<path d="M496.398 517.624L482.189 488.615L477.687 483.788L469.11 486.862L458.825 499.955L450.45 514.248L450.463 529.432L466.358 546.669L484.376 543.689L493.107 529.396L496.398 517.624Z" fill="#FFF9E1"/>
<path d="M528.985 450.436L539.07 446.387L547.406 458.016L544.724 472.652L544.146 482.852L534.306 487.245L527.079 484.062L528.985 450.436Z" fill="#FFF9E1"/>
<path d="M452.653 549.63L466.747 564.882L468.596 568.701L464.762 573.13L454.525 576.258L444.012 577.961L434.912 574.429L428.266 560.899L434.235 550.788L444.831 548.871L452.653 549.63Z" fill="#FFF9E1"/>
<path d="M533.68 497.388L536.746 501.863L535.31 506.731L528.544 519.64L509.371 517.326L506.88 496.677L510.374 493.121L533.68 497.388Z" fill="#FFF9E1"/>
<path d="M567.319 428.372L570.385 432.847L568.949 437.715L562.183 450.623L543.01 448.309L540.519 427.661L544.013 424.104L567.319 428.372Z" fill="#FFF9E1"/>
<path d="M254.482 83.9931L257.135 82.4613L257.589 79.6286L257.285 71.394L246.948 67.8863L240.649 77.8036L241.563 80.4707L254.482 83.9931Z" fill="#FFF9E1"/>
<path d="M94.58 147.464L97.233 145.932L97.6867 143.099L97.3822 134.865L87.0459 131.357L80.7463 141.274L81.6609 143.941L94.58 147.464Z" fill="#FFF9E1"/>
<path d="M578.607 184.113L530.114 166.654L510.167 173.513L505.792 179.038L519.321 195.884L538.6 214.805L560.984 222.822L571.612 227.661L582.781 224.776L578.607 184.113Z" fill="#FFF9E1"/>
<path d="M297.527 569.045L249.034 551.587L229.087 558.445L224.712 563.971L238.241 580.817L257.52 599.738L279.904 607.755L290.532 612.593L301.701 609.708L297.527 569.045Z" fill="#FFF9E1"/>
<path d="M569.72 410.318L560.771 381.872L550.625 375.09L546.548 375.011L543.53 387.142L541.572 402.648L545.721 415.763L547.217 422.352L552.458 426.485L569.72 410.318Z" fill="#FFF9E1"/>
<path d="M220.245 579.293L211.296 550.848L201.15 544.065L197.073 543.986L194.056 556.118L192.097 571.623L196.247 584.739L197.742 591.328L202.983 595.46L220.245 579.293Z" fill="#FFF9E1"/>
<path d="M274.765 14H263.965L257.586 21.7917L244 47.2819L269.376 76L306.092 56.9659L308 47.2819L274.765 14Z" fill="#FFF9E1"/>
<path d="M361.052 577.89L342.997 575.249L339.31 575.806L338.004 580.785L340.821 589.759L344.808 598.225L351.888 603.067L364.996 601.164L369.36 591.816L365.488 583.183L361.052 577.89Z" fill="#FFF9E1"/>
<path d="M362.184 565.278L362.021 556.079L361.443 554.29L358.858 554.047L354.624 556.183L350.738 558.859L348.907 562.778L350.927 569.144L355.935 570.551L359.913 567.918L362.184 565.278Z" fill="#FFF9E1"/>
<path d="M336.081 588.796L334.507 581.723L324.969 581.521L317.93 588.512L312.538 592.674L313.83 599.742L318.304 602.517L336.081 588.796Z" fill="#FFF9E1"/>
<path d="M383.906 610.701L386.559 609.169L387.013 606.337L386.708 598.102L376.372 594.594L370.072 604.512L370.987 607.179L383.906 610.701Z" fill="#FFF9E1"/>
<path d="M405.246 541H394.277L387.799 549.043L374 575.355L399.772 605L437.062 585.352L439 575.355L405.246 541Z" fill="#FFF9E1"/>
<path d="M585.603 285.859L589.146 267.958L588.775 264.248L583.868 262.694L574.764 265.058L566.109 268.615L560.917 275.443L562.16 288.63L571.278 293.458L580.094 290.023L585.603 285.859Z" fill="#FFF9E1"/>
<path d="M598.128 287.612L607.324 287.91L609.14 287.422L609.512 284.854L607.591 280.517L605.113 276.502L601.291 274.477L594.832 276.175L593.175 281.106L595.606 285.212L598.128 287.612Z" fill="#FFF9E1"/>
<path d="M575.954 260.38L583.097 259.163L583.777 249.647L577.148 242.266L573.262 236.672L566.138 237.608L563.141 241.937L575.954 260.38Z" fill="#FFF9E1"/>
<path d="M551.694 307.037L553.09 309.764L555.897 310.359L564.136 310.468L568.158 300.32L558.569 293.531L555.859 294.311L551.694 307.037Z" fill="#FFF9E1"/>
<path d="M620.515 331.822L621.059 320.986L613.518 314.191L588.479 299.269L558.221 323.273L575.579 361.075L585.255 363.481L620.515 331.822Z" fill="#FFF9E1"/>
<path d="M512.383 128H506.983L503.793 132.147L497 145.715L509.688 161L528.046 150.869L529 145.715L512.383 128Z" fill="#FFF9E1"/>
<path d="M511.22 96.805L507.246 92.3344L501.647 92.5844L486.011 96.4162L483.361 117.573L504.813 125.71L509.557 122.908L511.22 96.805Z" fill="#FFF9E1"/>
</svg>
