<svg width="120" height="24" viewBox="0 0 120 24" fill="none" xmlns="http://www.w3.org/2000/svg">
<path d="M0.277344 9.94922L4.31445 0.0849609H5.68555L9.72266 9.94922H8.32617L7.23438 7.16895H2.77832L1.67383 9.94922H0.277344ZM3.23535 5.98828H6.76465L5 1.49414L3.23535 5.98828ZM18.8506 10.0381C18.1396 10.0381 17.4964 9.91113 16.9209 9.65723C16.3538 9.40332 15.8672 9.05208 15.4609 8.60352C15.0632 8.14648 14.7542 7.61751 14.5342 7.0166C14.3226 6.41569 14.2168 5.77246 14.2168 5.08691C14.2168 4.40983 14.3226 3.77083 14.5342 3.16992C14.7542 2.56901 15.0674 2.03581 15.4736 1.57031C15.8799 1.10482 16.3665 0.740885 16.9336 0.478516C17.5007 0.216146 18.1354 0.0849609 18.8379 0.0849609C19.3542 0.0849609 19.8577 0.165365 20.3486 0.326172C20.8395 0.478516 21.305 0.685872 21.7451 0.948242V2.39551C21.3219 2.09928 20.8607 1.84115 20.3613 1.62109C19.862 1.40104 19.3499 1.29102 18.8252 1.29102C18.3005 1.29102 17.835 1.39681 17.4287 1.6084C17.0309 1.81999 16.6966 2.10352 16.4258 2.45898C16.1549 2.81445 15.9476 3.21647 15.8037 3.66504C15.6683 4.11361 15.6006 4.5791 15.6006 5.06152C15.6006 5.54395 15.6683 6.01367 15.8037 6.4707C15.9476 6.91927 16.1549 7.32129 16.4258 7.67676C16.7051 8.03223 17.0479 8.31576 17.4541 8.52734C17.8604 8.73047 18.3258 8.83203 18.8506 8.83203C19.3838 8.83203 19.9001 8.71777 20.3994 8.48926C20.8988 8.25228 21.36 7.98145 21.7832 7.67676V9.1748C21.3431 9.43717 20.8734 9.64876 20.374 9.80957C19.8831 9.96191 19.3753 10.0381 18.8506 10.0381ZM30.3145 10.0381V1.46875H26.8105V0.262695H35.1768V1.46875H31.6855V10.0381H30.3145ZM40.8008 9.94922V0.262695H44.4189C45.0622 0.262695 45.6419 0.347331 46.1582 0.516602C46.6745 0.685872 47.085 0.973633 47.3896 1.37988C47.7028 1.78613 47.8594 2.34896 47.8594 3.06836C47.8594 3.7793 47.7028 4.33789 47.3896 4.74414C47.085 5.15039 46.6745 5.43815 46.1582 5.60742C45.6419 5.77669 45.0622 5.86133 44.4189 5.86133H42.0957V9.94922H40.8008ZM42.0957 4.65527H44.165C44.5544 4.65527 44.9268 4.62142 45.2822 4.55371C45.6462 4.486 45.9424 4.34212 46.1709 4.12207C46.3994 3.89355 46.5137 3.53809 46.5137 3.05566C46.5137 2.69173 46.446 2.40397 46.3105 2.19238C46.1751 1.98079 45.9932 1.82422 45.7646 1.72266C45.5446 1.61263 45.2949 1.54492 45.0156 1.51953C44.7363 1.48568 44.4528 1.46875 44.165 1.46875H42.0957V4.65527ZM57.0127 10.0381C56.014 10.0381 55.1803 9.8138 54.5117 9.36523C53.8516 8.91667 53.3564 8.31152 53.0264 7.5498C52.6963 6.78809 52.5312 5.94173 52.5312 5.01074C52.5312 4.06283 52.7048 3.2207 53.0518 2.48438C53.3988 1.73958 53.9108 1.1556 54.5879 0.732422C55.2734 0.300781 56.1071 0.0849609 57.0889 0.0849609C57.8167 0.0849609 58.4557 0.216146 59.0059 0.478516C59.556 0.740885 60.013 1.10482 60.377 1.57031C60.7493 2.02734 61.0244 2.56055 61.2021 3.16992C61.3883 3.77083 61.4814 4.40983 61.4814 5.08691C61.4814 6.00944 61.3122 6.84733 60.9736 7.60059C60.6351 8.34538 60.1357 8.93783 59.4756 9.37793C58.8154 9.81803 57.9945 10.0381 57.0127 10.0381ZM57 8.83203C57.5671 8.83203 58.0452 8.73047 58.4346 8.52734C58.8324 8.31576 59.154 8.03223 59.3994 7.67676C59.6449 7.32129 59.8226 6.91504 59.9326 6.45801C60.0426 6.00098 60.0977 5.51855 60.0977 5.01074C60.0977 4.33366 59.9876 3.71582 59.7676 3.15723C59.556 2.59017 59.2174 2.13737 58.752 1.79883C58.2865 1.46029 57.6813 1.29102 56.9365 1.29102C56.3864 1.29102 55.9167 1.39681 55.5273 1.6084C55.1465 1.81152 54.8333 2.09082 54.5879 2.44629C54.3509 2.80176 54.1774 3.20801 54.0674 3.66504C53.9574 4.11361 53.9023 4.5791 53.9023 5.06152C53.9023 5.72168 54.0039 6.33952 54.207 6.91504C54.4186 7.49056 54.7487 7.95605 55.1973 8.31152C55.6543 8.65853 56.2552 8.83203 57 8.83203ZM64.249 5.51855V4.60449H69.2383V5.51855H64.249ZM75.8525 10.0381V8.80664C75.5648 8.78125 75.277 8.73893 74.9893 8.67969C74.71 8.62044 74.4349 8.53581 74.1641 8.42578C73.707 8.23958 73.305 7.97721 72.958 7.63867C72.6195 7.30013 72.3529 6.91081 72.1582 6.4707C71.972 6.02214 71.8789 5.55241 71.8789 5.06152C71.8789 4.29134 72.0609 3.63965 72.4248 3.10645C72.7972 2.56478 73.2839 2.14583 73.8848 1.84961C74.4941 1.54492 75.1501 1.36719 75.8525 1.31641V0.0849609H77.1094V1.31641C77.8203 1.37565 78.4762 1.55339 79.0771 1.84961C79.6781 2.14583 80.1605 2.56478 80.5244 3.10645C80.8968 3.63965 81.083 4.29134 81.083 5.06152C81.083 5.42546 81.028 5.78092 80.918 6.12793C80.8079 6.46647 80.6514 6.78809 80.4482 7.09277C80.0505 7.67676 79.5638 8.09147 78.9883 8.33691C78.4128 8.58236 77.7865 8.73893 77.1094 8.80664V10.0381H75.8525ZM75.8525 7.68945V2.43359C75.3532 2.47591 74.9004 2.60286 74.4941 2.81445C74.0879 3.02604 73.7663 3.32227 73.5293 3.70312C73.2923 4.07552 73.1738 4.52832 73.1738 5.06152C73.1738 5.60319 73.2923 6.06022 73.5293 6.43262C73.7663 6.80501 74.0879 7.09701 74.4941 7.30859C74.9004 7.51172 75.3532 7.63867 75.8525 7.68945ZM77.1094 7.68945C77.6087 7.64714 78.0615 7.52018 78.4678 7.30859C78.874 7.09701 79.1956 6.80501 79.4326 6.43262C79.6696 6.05176 79.7881 5.59473 79.7881 5.06152C79.7881 4.51986 79.6696 4.06283 79.4326 3.69043C79.1956 3.31803 78.874 3.03027 78.4678 2.82715C78.0615 2.61556 77.6087 2.48438 77.1094 2.43359V7.68945ZM86.2881 9.86035V0.262695H92.9404V1.46875H87.583V4.28711H92.5723V5.49316H87.583V8.6543H93.0293V9.86035H86.2881ZM103.351 10.0381C102.64 10.0381 101.996 9.91113 101.421 9.65723C100.854 9.40332 100.367 9.05208 99.9609 8.60352C99.5632 8.14648 99.2542 7.61751 99.0342 7.0166C98.8226 6.41569 98.7168 5.77246 98.7168 5.08691C98.7168 4.40983 98.8226 3.77083 99.0342 3.16992C99.2542 2.56901 99.5674 2.03581 99.9736 1.57031C100.38 1.10482 100.867 0.740885 101.434 0.478516C102.001 0.216146 102.635 0.0849609 103.338 0.0849609C103.854 0.0849609 104.358 0.165365 104.849 0.326172C105.34 0.478516 105.805 0.685872 106.245 0.948242V2.39551C105.822 2.09928 105.361 1.84115 104.861 1.62109C104.362 1.40104 103.85 1.29102 103.325 1.29102C102.8 1.29102 102.335 1.39681 101.929 1.6084C101.531 1.81999 101.197 2.10352 100.926 2.45898C100.655 2.81445 100.448 3.21647 100.304 3.66504C100.168 4.11361 100.101 4.5791 100.101 5.06152C100.101 5.54395 100.168 6.01367 100.304 6.4707C100.448 6.91927 100.655 7.32129 100.926 7.67676C101.205 8.03223 101.548 8.31576 101.954 8.52734C102.36 8.73047 102.826 8.83203 103.351 8.83203C103.884 8.83203 104.4 8.71777 104.899 8.48926C105.399 8.25228 105.86 7.98145 106.283 7.67676V9.1748C105.843 9.43717 105.373 9.64876 104.874 9.80957C104.383 9.96191 103.875 10.0381 103.351 10.0381ZM114.814 10.0381V1.46875H111.311V0.262695H119.677V1.46875H116.186V10.0381H114.814ZM25.3506 23.0381C24.6396 23.0381 23.9964 22.9111 23.4209 22.6572C22.8538 22.4033 22.3672 22.0521 21.9609 21.6035C21.5632 21.1465 21.2542 20.6175 21.0342 20.0166C20.8226 19.4157 20.7168 18.7725 20.7168 18.0869C20.7168 17.4098 20.8226 16.7708 21.0342 16.1699C21.2542 15.569 21.5674 15.0358 21.9736 14.5703C22.3799 14.1048 22.8665 13.7409 23.4336 13.4785C24.0007 13.2161 24.6354 13.085 25.3379 13.085C25.8542 13.085 26.3577 13.1654 26.8486 13.3262C27.3395 13.4785 27.805 13.6859 28.2451 13.9482V15.3955C27.8219 15.0993 27.3607 14.8411 26.8613 14.6211C26.362 14.401 25.8499 14.291 25.3252 14.291C24.8005 14.291 24.335 14.3968 23.9287 14.6084C23.5309 14.82 23.1966 15.1035 22.9258 15.459C22.6549 15.8145 22.4476 16.2165 22.3037 16.665C22.1683 17.1136 22.1006 17.5791 22.1006 18.0615C22.1006 18.5439 22.1683 19.0137 22.3037 19.4707C22.4476 19.9193 22.6549 20.3213 22.9258 20.6768C23.2051 21.0322 23.5479 21.3158 23.9541 21.5273C24.3604 21.7305 24.8258 21.832 25.3506 21.832C25.8838 21.832 26.4001 21.7178 26.8994 21.4893C27.3988 21.2523 27.86 20.9814 28.2832 20.6768V22.1748C27.8431 22.4372 27.3734 22.6488 26.874 22.8096C26.3831 22.9619 25.8753 23.0381 25.3506 23.0381ZM32.5996 23.457C32.3457 23.457 32.1299 23.3639 31.9521 23.1777C31.7744 23 31.6855 22.7842 31.6855 22.5303C31.6855 22.2679 31.7786 22.0521 31.9648 21.8828C32.151 21.7051 32.3711 21.6162 32.625 21.6162C32.8704 21.6162 33.082 21.7093 33.2598 21.8955C33.4375 22.0732 33.5264 22.2848 33.5264 22.5303C33.5264 22.7926 33.4375 23.0127 33.2598 23.1904C33.082 23.3682 32.862 23.457 32.5996 23.457ZM46.1455 22.9492V13.1738H47.4404L50.5 17.5791L53.5596 13.1738H54.8545V22.9492H53.5596V15.0908L50.5 19.458L47.4404 15.0908V22.9492H46.1455ZM58.7773 22.9492L62.8145 13.085H64.1855L68.2227 22.9492H66.8262L65.7344 20.1689H61.2783L60.1738 22.9492H58.7773ZM61.7354 18.9883H65.2646L63.5 14.4941L61.7354 18.9883ZM73.3008 22.9492V13.2627H76.9189C77.5622 13.2627 78.1419 13.3473 78.6582 13.5166C79.1745 13.6859 79.585 13.9736 79.8896 14.3799C80.2028 14.7861 80.3594 15.349 80.3594 16.0684C80.3594 16.7793 80.2028 17.3379 79.8896 17.7441C79.585 18.1504 79.1745 18.4382 78.6582 18.6074C78.1419 18.7767 77.5622 18.8613 76.9189 18.8613H74.5957V22.9492H73.3008ZM74.5957 17.6553H76.665C77.0544 17.6553 77.4268 17.6214 77.7822 17.5537C78.1462 17.486 78.4424 17.3421 78.6709 17.1221C78.8994 16.8936 79.0137 16.5381 79.0137 16.0557C79.0137 15.6917 78.946 15.404 78.8105 15.1924C78.6751 14.9808 78.4932 14.8242 78.2646 14.7227C78.0446 14.6126 77.7949 14.5449 77.5156 14.5195C77.2363 14.4857 76.9528 14.4688 76.665 14.4688H74.5957V17.6553ZM86.1357 22.9492V13.1738H87.4561V17.4141H88.624C89.0303 17.4141 89.3519 17.3379 89.5889 17.1855C89.8343 17.0247 90.0205 16.8174 90.1475 16.5635C90.2829 16.3011 90.3844 16.0176 90.4521 15.7129C90.5283 15.3997 90.5918 15.0908 90.6426 14.7861C90.7018 14.4814 90.7738 14.2021 90.8584 13.9482C90.943 13.6859 91.0658 13.4785 91.2266 13.3262C91.3874 13.1654 91.6159 13.085 91.9121 13.085C92.1406 13.085 92.3649 13.1188 92.585 13.1865C92.805 13.2458 93.0166 13.3304 93.2197 13.4404V14.6846C93.0928 14.5915 92.9447 14.5026 92.7754 14.418C92.6061 14.3249 92.4411 14.2783 92.2803 14.2783C92.1449 14.2783 92.0264 14.3545 91.9248 14.5068C91.8317 14.6592 91.7513 14.8581 91.6836 15.1035C91.6243 15.3405 91.5693 15.5944 91.5186 15.8652C91.4678 16.1276 91.4128 16.373 91.3535 16.6016C91.3027 16.8216 91.2393 16.9909 91.1631 17.1094C91.0446 17.304 90.888 17.4691 90.6934 17.6045C90.5072 17.7399 90.3083 17.8542 90.0967 17.9473C90.4352 18.0319 90.7272 18.1631 90.9727 18.3408C91.2266 18.5101 91.4593 18.7301 91.6709 19.001C91.9333 19.3226 92.1787 19.7204 92.4072 20.1943C92.6442 20.6598 92.8558 21.138 93.042 21.6289C93.2367 22.1113 93.4017 22.5514 93.5371 22.9492H92.0391C91.9121 22.4837 91.764 22.0267 91.5947 21.5781C91.4255 21.1296 91.2393 20.6895 91.0361 20.2578C90.8076 19.7669 90.4902 19.3734 90.084 19.0771C89.6862 18.7725 89.208 18.6201 88.6494 18.6201H87.4561V22.9492H86.1357ZM99.2881 22.8604V13.2627H105.94V14.4688H100.583V17.2871H105.572V18.4932H100.583V21.6543H106.029V22.8604H99.2881ZM114.814 23.0381V14.4688H111.311V13.2627H119.677V14.4688H116.186V23.0381H114.814Z" fill="#FFF9E1"/>
</svg>
