<svg width="2400" height="2400" viewBox="0 0 2400 2400" fill="none" xmlns="http://www.w3.org/2000/svg">
<path d="M157.544 450.031L233.638 415.406L146 521.407L157.544 450.031Z" fill="#212121"/>
<path d="M315.522 574.797L223.611 631.656L317.042 681.716L364.386 743.624L349.022 690.382L315.522 574.797Z" fill="#212121"/>
<path d="M510.949 536.409L565.279 651.509L622.921 571.935L596.65 471.262L510.949 536.409Z" fill="#212121"/>
<path d="M433.64 244.309L459.472 242.467L550.82 334.15L624.978 369.863L596.278 432.198L508.321 451.056L591.204 393.459L486.667 322.061L400.133 415.553L409.029 369.886L433.64 244.309Z" fill="#212121"/>
<path d="M202.439 148.024L379.795 166.203L328.179 228.011L215.08 293.419L249.075 209.29L202.439 148.024Z" fill="#212121"/>
<path d="M487.153 138.375L479.983 180.123L653.925 140.205L556.086 101.054L487.153 138.375Z" fill="#212121"/>
<path d="M993.91 465.944L1045.52 400.176L1016.52 534.621L993.91 465.944Z" fill="#212121"/>
<path d="M1141.77 554.402L1089.43 648.959L1195.41 646.907L1266.99 677.736L1227.54 638.819L1141.77 554.402Z" fill="#212121"/>
<path d="M1285.42 482.482L1283.99 609.751L1370.61 563.363L1390.97 461.331L1285.42 482.482Z" fill="#212121"/>
<path d="M1166.36 344.567L1184.17 325.768L1313.45 331.726L1392.27 308.003L1413.19 373.363L1361.03 446.658L1383.29 348.212L1257.97 366.121L1257.26 493.512L1232.99 453.818L1166.36 344.567Z" fill="#212121"/>
<path d="M1060.78 189.232L1225.86 256.579L1158.94 301.366L1032.01 332.31L1088.3 261.145L1060.78 189.232Z" fill="#212121"/>
<path d="M1283.86 145.572L1257.94 179.081L1430.29 225.401L1362.24 144.938L1283.86 145.572Z" fill="#212121"/>
<path d="M1828.03 459.203L1892.29 405.731L1835.72 531.097L1828.03 459.203Z" fill="#212121"/>
<path d="M1928.06 521.633L1863.39 608.227L1968.67 620.551L2035.41 660.793L2001.6 616.891L1928.06 521.633Z" fill="#212121"/>
<path d="M2056.12 468.058L2071.68 594.382L2151.34 536.861L2157.91 433.026L2056.12 468.058Z" fill="#212121"/>
<path d="M1912 357.333L1927.91 336.84L2057.31 330.149L2133.52 298.782L2160.74 361.933L2115.93 440.14L2128.5 339.768L2005.38 369.88L2017.11 497.018L1989.05 459.797L1912 357.333Z" fill="#212121"/>
<path d="M1886.27 192.109L2035.74 289.609L1961.42 320.859L1830.74 327.109L1899.63 267.943L1886.27 192.109Z" fill="#212121"/>
<path d="M2070.4 140.573L2036.11 165.441L2188.47 258.368L2145.8 162.012L2070.4 140.573Z" fill="#212121"/>
<path d="M227.028 1269.88L291.292 1216.41L234.723 1341.77L227.028 1269.88Z" fill="#212121"/>
<path d="M315.016 1278.44L250.348 1365.03L355.626 1377.35L422.369 1417.6L388.556 1373.69L315.016 1278.44Z" fill="#212121"/>
<path d="M426.602 1286.34L442.155 1412.66L515.489 1355.52L521.817 1247.78L512.526 1251.54L426.602 1286.34Z" fill="#212121"/>
<path d="M316.872 1209.65L332.785 1189.25L462.182 1182.6L538.397 1151.39L565.616 1214.22L520.809 1292.04L533.372 1192.17L410.256 1222.13L421.981 1348.64L393.924 1311.6L316.872 1209.65Z" fill="#212121"/>
<path d="M327.146 1014.72L476.616 1112.22L402.298 1143.47L271.616 1149.72L340.506 1090.55L327.146 1014.72Z" fill="#212121"/>
<path d="M471.932 983.573L437.642 1008.44L590.003 1101.37L547.33 1005.01L471.932 983.573Z" fill="#212121"/>
<path d="M1078.03 1270.51L1142.29 1217.03L1085.72 1342.4L1078.03 1270.51Z" fill="#212121"/>
<path d="M1160.94 1258.96L1096.27 1345.56L1201.55 1357.88L1268.29 1398.12L1234.48 1354.22L1160.94 1258.96Z" fill="#212121"/>
<path d="M1244.48 1250.87L1260.03 1377.2L1339.69 1319.68L1346.27 1215.84L1244.48 1250.87Z" fill="#212121"/>
<path d="M1142.67 1194.96L1158.58 1174.47L1287.98 1167.78L1364.19 1136.41L1391.41 1199.56L1346.61 1277.77L1359.17 1177.39L1236.05 1207.51L1247.78 1334.65L1219.72 1297.42L1142.67 1194.96Z" fill="#212121"/>
<path d="M1184.94 1032.74L1334.41 1130.24L1260.1 1161.49L1129.41 1167.74L1198.3 1108.57L1184.94 1032.74Z" fill="#212121"/>
<path d="M1274.95 1004.57L1240.66 1029.44L1393.02 1122.37L1350.34 1026.01L1274.95 1004.57Z" fill="#212121"/>
<path d="M1827.03 1265.92L1891.29 1212.45L1834.72 1337.82L1827.03 1265.92Z" fill="#212121"/>
<path d="M1904.88 1250.39L1840.21 1336.99L1945.49 1349.31L2012.23 1389.55L1978.42 1345.65L1904.88 1250.39Z" fill="#212121"/>
<path d="M1996.58 1226.85L2004.03 1353.91L2087.2 1301.6L2100.41 1198.4L1996.58 1226.85Z" fill="#212121"/>
<path d="M1892.58 1207.42L1908.49 1187.03L2037.89 1180.37L2114.1 1149.16L2141.32 1212L2096.51 1289.82L2109.08 1189.94L1985.96 1219.91L1997.69 1346.42L1969.63 1309.38L1892.58 1207.42Z" fill="#212121"/>
<path d="M1958.85 1044.5L2108.32 1142L2034 1173.25L1903.32 1179.5L1972.21 1120.33L1958.85 1044.5Z" fill="#212121"/>
<path d="M2000.31 1012.57L1966.02 1037.44L2118.38 1130.37L2075.71 1034.01L2000.31 1012.57Z" fill="#212121"/>
<path d="M225.824 2027.63L299.421 1987.97L219.099 2099.62L225.824 2027.63Z" fill="#212121"/>
<path d="M281.939 2019.42L218.186 2106.69L323.587 2117.91L390.75 2157.45L356.477 2113.9L281.939 2019.42Z" fill="#212121"/>
<path d="M387.401 2172.57L379.753 2028.57L379.752 2028.54L379.752 2028.54L498.219 1998.68L481.879 2114.8L387.401 2172.57Z" fill="#212121"/>
<path d="M282.753 2014.47L298.666 1993.97L428.063 1987.28L504.278 1955.92L531.497 2019.07L486.69 2097.27L499.253 1996.9L376.137 2027.01L387.862 2154.15L359.805 2116.93L282.753 2014.47Z" fill="#212121"/>
<path d="M349.277 1850.24L507.497 1953.52L428.829 1986.62L290.497 1993.24L363.42 1930.57L349.277 1850.24Z" fill="#212121"/>
<path d="M387.872 1824.1L350.433 1849.36L509.408 1953.9L467.433 1849.68L387.872 1824.1Z" fill="#212121"/>
<path d="M1198.94 2162L1130.13 2120.58L1023 2109.08L1031.93 2035.78L1108.79 1995.88L1176.73 1936.46L1162.79 1861.64L1198.94 1838L1272.54 1861.64L1342 2024.51L1292.79 2109.08L1198.94 2162Z" fill="#212121"/>
</svg>
