<svg width="80" height="11" viewBox="0 0 80 11" fill="none" xmlns="http://www.w3.org/2000/svg">
<path d="M0.470703 9.86035V0.262695H6.46289V1.44336H1.76562V4.24902H4.30469C4.93945 4.24902 5.49805 4.34212 5.98047 4.52832C6.46289 4.70605 6.83529 5.00228 7.09766 5.41699C7.36849 5.82324 7.50391 6.36914 7.50391 7.05469C7.50391 7.73177 7.36849 8.27767 7.09766 8.69238C6.83529 9.1071 6.46289 9.40755 5.98047 9.59375C5.49805 9.77148 4.93945 9.86035 4.30469 9.86035H0.470703ZM1.76562 8.67969H4.06348C4.46126 8.67969 4.81673 8.6416 5.12988 8.56543C5.4515 8.48079 5.7054 8.32422 5.8916 8.0957C6.0778 7.85872 6.1709 7.51172 6.1709 7.05469C6.1709 6.58919 6.0778 6.24219 5.8916 6.01367C5.7054 5.78516 5.4515 5.63281 5.12988 5.55664C4.81673 5.47201 4.46126 5.42969 4.06348 5.42969H1.76562V8.67969ZM13.1025 9.94922V0.173828H14.4229V7.8291L19.6152 0.173828H20.8975V9.94922H19.5771V2.29395L14.3848 9.94922H13.1025ZM32.6914 9.94922V1.46875H28.2734V8.55273C28.2734 8.95898 28.1888 9.25521 28.0195 9.44141C27.8587 9.6276 27.6429 9.74609 27.3721 9.79688C27.1012 9.83919 26.7965 9.86035 26.458 9.86035H25.6582V8.6543C25.7513 8.6543 25.8698 8.65853 26.0137 8.66699C26.1576 8.67546 26.3014 8.67122 26.4453 8.6543C26.5892 8.63737 26.7077 8.59505 26.8008 8.52734C26.9023 8.45964 26.9531 8.34961 26.9531 8.19727V0.262695H34.0117V9.94922H32.6914ZM39.7881 9.86035V0.262695H46.4404V1.46875H41.083V4.28711H46.0723V5.49316H41.083V8.6543H46.5293V9.86035H39.7881ZM55.3145 10.0381V1.46875H51.8105V0.262695H60.1768V1.46875H56.6855V10.0381H55.3145ZM64.3281 9.86035V0.173828H65.623V4.24902C66.0801 4.24902 66.5498 4.24902 67.0322 4.24902C67.5231 4.24056 67.9928 4.26595 68.4414 4.3252C68.89 4.38444 69.292 4.50716 69.6475 4.69336C70.0114 4.87956 70.2949 5.16309 70.498 5.54395C70.7096 5.91634 70.8154 6.41992 70.8154 7.05469C70.8154 7.73177 70.68 8.27767 70.4092 8.69238C70.1468 9.1071 69.7744 9.40755 69.292 9.59375C68.8096 9.77148 68.251 9.86035 67.6162 9.86035H64.3281ZM72.3389 9.94922V0.173828H73.6592V9.94922H72.3389ZM65.623 8.67969H67.3623C67.7516 8.67969 68.1071 8.6416 68.4287 8.56543C68.7503 8.48926 69.0042 8.33691 69.1904 8.1084C69.3851 7.87988 69.4824 7.53711 69.4824 7.08008C69.4824 6.60612 69.3893 6.25488 69.2031 6.02637C69.0169 5.78939 68.763 5.63281 68.4414 5.55664C68.1283 5.47201 67.7686 5.42969 67.3623 5.42969H65.623V8.67969ZM78.75 4.8457C78.5046 4.8457 78.293 4.75684 78.1152 4.5791C77.946 4.40137 77.8613 4.18978 77.8613 3.94434C77.8613 3.69889 77.9502 3.49154 78.1279 3.32227C78.3141 3.15299 78.5257 3.06836 78.7627 3.06836C79.0081 3.06836 79.2155 3.15723 79.3848 3.33496C79.554 3.50423 79.6387 3.71159 79.6387 3.95703C79.6387 4.20247 79.5498 4.41406 79.3721 4.5918C79.2028 4.76107 78.9954 4.8457 78.75 4.8457ZM78.75 10.0381C78.5046 10.0381 78.293 9.94922 78.1152 9.77148C77.946 9.59375 77.8613 9.38216 77.8613 9.13672C77.8613 8.89128 77.9502 8.68392 78.1279 8.51465C78.3141 8.34538 78.5257 8.26074 78.7627 8.26074C79.0081 8.26074 79.2155 8.34961 79.3848 8.52734C79.554 8.69661 79.6387 8.90397 79.6387 9.14941C79.6387 9.39486 79.5498 9.60645 79.3721 9.78418C79.2028 9.95345 78.9954 10.0381 78.75 10.0381Z" fill="#FFF9E1"/>
</svg>
