<svg width="145" height="11" viewBox="0 0 145 11" fill="none" xmlns="http://www.w3.org/2000/svg">
<path d="M4.85059 10.0381C4.13965 10.0381 3.49642 9.91113 2.9209 9.65723C2.35384 9.40332 1.86719 9.05208 1.46094 8.60352C1.06315 8.14648 0.754232 7.61751 0.53418 7.0166C0.322591 6.41569 0.216797 5.77246 0.216797 5.08691C0.216797 4.40983 0.322591 3.77083 0.53418 3.16992C0.754232 2.56901 1.06738 2.03581 1.47363 1.57031C1.87988 1.10482 2.36654 0.740885 2.93359 0.478516C3.50065 0.216146 4.13542 0.0849609 4.83789 0.0849609C5.35417 0.0849609 5.85775 0.165365 6.34863 0.326172C6.83952 0.478516 7.30501 0.685872 7.74512 0.948242V2.39551C7.32194 2.09928 6.86068 1.84115 6.36133 1.62109C5.86198 1.40104 5.34993 1.29102 4.8252 1.29102C4.30046 1.29102 3.83496 1.39681 3.42871 1.6084C3.03092 1.81999 2.69661 2.10352 2.42578 2.45898C2.15495 2.81445 1.94759 3.21647 1.80371 3.66504C1.66829 4.11361 1.60059 4.5791 1.60059 5.06152C1.60059 5.54395 1.66829 6.01367 1.80371 6.4707C1.94759 6.91927 2.15495 7.32129 2.42578 7.67676C2.70508 8.03223 3.04785 8.31576 3.4541 8.52734C3.86035 8.73047 4.32585 8.83203 4.85059 8.83203C5.38379 8.83203 5.90007 8.71777 6.39941 8.48926C6.89876 8.25228 7.36003 7.98145 7.7832 7.67676V9.1748C7.3431 9.43717 6.87337 9.64876 6.37402 9.80957C5.88314 9.96191 5.37533 10.0381 4.85059 10.0381ZM13.6611 9.86035V0.262695H17.7363C18.278 0.262695 18.7773 0.347331 19.2344 0.516602C19.6999 0.685872 20.0723 0.956706 20.3516 1.3291C20.6309 1.69303 20.7705 2.17969 20.7705 2.78906C20.7705 3.83854 20.2754 4.55794 19.2852 4.94727C20.4362 5.31966 21.0117 6.10254 21.0117 7.2959C21.0117 7.80371 20.9229 8.22689 20.7451 8.56543C20.5674 8.89551 20.3219 9.15365 20.0088 9.33984C19.6956 9.52604 19.3402 9.66146 18.9424 9.74609C18.5446 9.82227 18.1257 9.86035 17.6855 9.86035H13.6611ZM14.9561 4.41406H17.6729C18.1976 4.41406 18.6208 4.2998 18.9424 4.07129C19.2725 3.84277 19.4375 3.44499 19.4375 2.87793C19.4375 2.514 19.3571 2.23047 19.1963 2.02734C19.0439 1.81576 18.8324 1.66764 18.5615 1.58301C18.2992 1.48991 18.0029 1.44336 17.6729 1.44336H14.9561V4.41406ZM14.9561 8.67969H17.6221C17.9691 8.67969 18.2992 8.63737 18.6123 8.55273C18.9255 8.4681 19.1794 8.31999 19.374 8.1084C19.5771 7.88835 19.6787 7.5752 19.6787 7.16895C19.6787 6.7373 19.5687 6.40723 19.3486 6.17871C19.1286 5.9502 18.8493 5.79785 18.5107 5.72168C18.1807 5.63704 17.8337 5.59473 17.4697 5.59473H14.9561V8.67969ZM25.8232 9.94922C25.8994 9.71224 25.9925 9.40332 26.1025 9.02246C26.2126 8.63314 26.3268 8.22689 26.4453 7.80371C26.5723 7.38053 26.6992 6.99121 26.8262 6.63574C26.9531 6.28027 27.0716 6.0179 27.1816 5.84863C27.3001 5.67936 27.4398 5.53125 27.6006 5.4043C27.7614 5.27734 27.9349 5.16732 28.1211 5.07422C26.9701 4.79492 26.3945 4.06283 26.3945 2.87793C26.3945 2.21777 26.5299 1.69727 26.8008 1.31641C27.0801 0.935547 27.4567 0.664714 27.9307 0.503906C28.4046 0.343099 28.9378 0.262695 29.5303 0.262695H33.8467V9.94922H32.5518V5.62012H29.8223C29.5599 5.62012 29.2975 5.66243 29.0352 5.74707C28.7728 5.82324 28.5527 5.95866 28.375 6.15332C28.2819 6.26335 28.1888 6.43685 28.0957 6.67383C28.0026 6.91081 27.9095 7.18164 27.8164 7.48633C27.7318 7.79102 27.6514 8.10417 27.5752 8.42578C27.5075 8.73893 27.4398 9.03092 27.3721 9.30176C27.3128 9.57259 27.262 9.78841 27.2197 9.94922H25.8232ZM29.6191 4.43945H32.5518V1.44336H29.6826C29.3525 1.44336 29.0352 1.48568 28.7305 1.57031C28.4342 1.64648 28.193 1.78613 28.0068 1.98926C27.8206 2.19238 27.7275 2.48861 27.7275 2.87793C27.7275 3.26725 27.8122 3.57617 27.9814 3.80469C28.1507 4.0332 28.375 4.19824 28.6543 4.2998C28.9421 4.3929 29.2637 4.43945 29.6191 4.43945ZM42.3145 10.0381V1.46875H38.8105V0.262695H47.1768V1.46875H43.6855V10.0381H42.3145ZM51.2773 9.94922L55.3145 0.0849609H56.6855L60.7227 9.94922H59.3262L58.2344 7.16895H53.7783L52.6738 9.94922H51.2773ZM54.2354 5.98828H57.7646L56 1.49414L54.2354 5.98828ZM64.8232 9.94922C64.8994 9.71224 64.9925 9.40332 65.1025 9.02246C65.2126 8.63314 65.3268 8.22689 65.4453 7.80371C65.5723 7.38053 65.6992 6.99121 65.8262 6.63574C65.9531 6.28027 66.0716 6.0179 66.1816 5.84863C66.3001 5.67936 66.4398 5.53125 66.6006 5.4043C66.7614 5.27734 66.9349 5.16732 67.1211 5.07422C65.9701 4.79492 65.3945 4.06283 65.3945 2.87793C65.3945 2.21777 65.5299 1.69727 65.8008 1.31641C66.0801 0.935547 66.4567 0.664714 66.9307 0.503906C67.4046 0.343099 67.9378 0.262695 68.5303 0.262695H72.8467V9.94922H71.5518V5.62012H68.8223C68.5599 5.62012 68.2975 5.66243 68.0352 5.74707C67.7728 5.82324 67.5527 5.95866 67.375 6.15332C67.2819 6.26335 67.1888 6.43685 67.0957 6.67383C67.0026 6.91081 66.9095 7.18164 66.8164 7.48633C66.7318 7.79102 66.6514 8.10417 66.5752 8.42578C66.5075 8.73893 66.4398 9.03092 66.3721 9.30176C66.3128 9.57259 66.262 9.78841 66.2197 9.94922H64.8232ZM68.6191 4.43945H71.5518V1.44336H68.6826C68.3525 1.44336 68.0352 1.48568 67.7305 1.57031C67.4342 1.64648 67.193 1.78613 67.0068 1.98926C66.8206 2.19238 66.7275 2.48861 66.7275 2.87793C66.7275 3.26725 66.8122 3.57617 66.9814 3.80469C67.1507 4.0332 67.375 4.19824 67.6543 4.2998C67.9421 4.3929 68.2637 4.43945 68.6191 4.43945ZM84.1455 9.94922V0.173828H85.4404L88.5 4.5791L91.5596 0.173828H92.8545V9.94922H91.5596V2.09082L88.5 6.45801L85.4404 2.09082V9.94922H84.1455ZM96.7773 9.94922L100.814 0.0849609H102.186L106.223 9.94922H104.826L103.734 7.16895H99.2783L98.1738 9.94922H96.7773ZM99.7354 5.98828H103.265L101.5 1.49414L99.7354 5.98828ZM111.301 9.94922V0.262695H114.919C115.562 0.262695 116.142 0.347331 116.658 0.516602C117.174 0.685872 117.585 0.973633 117.89 1.37988C118.203 1.78613 118.359 2.34896 118.359 3.06836C118.359 3.7793 118.203 4.33789 117.89 4.74414C117.585 5.15039 117.174 5.43815 116.658 5.60742C116.142 5.77669 115.562 5.86133 114.919 5.86133H112.596V9.94922H111.301ZM112.596 4.65527H114.665C115.054 4.65527 115.427 4.62142 115.782 4.55371C116.146 4.486 116.442 4.34212 116.671 4.12207C116.899 3.89355 117.014 3.53809 117.014 3.05566C117.014 2.69173 116.946 2.40397 116.811 2.19238C116.675 1.98079 116.493 1.82422 116.265 1.72266C116.045 1.61263 115.795 1.54492 115.516 1.51953C115.236 1.48568 114.953 1.46875 114.665 1.46875H112.596V4.65527ZM123.603 9.94922V0.173828H124.923V7.8291L130.115 0.173828H131.397V9.94922H130.077V2.29395L124.885 9.94922H123.603ZM136.323 9.94922C136.399 9.71224 136.493 9.40332 136.603 9.02246C136.713 8.63314 136.827 8.22689 136.945 7.80371C137.072 7.38053 137.199 6.99121 137.326 6.63574C137.453 6.28027 137.572 6.0179 137.682 5.84863C137.8 5.67936 137.94 5.53125 138.101 5.4043C138.261 5.27734 138.435 5.16732 138.621 5.07422C137.47 4.79492 136.895 4.06283 136.895 2.87793C136.895 2.21777 137.03 1.69727 137.301 1.31641C137.58 0.935547 137.957 0.664714 138.431 0.503906C138.905 0.343099 139.438 0.262695 140.03 0.262695H144.347V9.94922H143.052V5.62012H140.322C140.06 5.62012 139.798 5.66243 139.535 5.74707C139.273 5.82324 139.053 5.95866 138.875 6.15332C138.782 6.26335 138.689 6.43685 138.596 6.67383C138.503 6.91081 138.41 7.18164 138.316 7.48633C138.232 7.79102 138.151 8.10417 138.075 8.42578C138.007 8.73893 137.94 9.03092 137.872 9.30176C137.813 9.57259 137.762 9.78841 137.72 9.94922H136.323ZM140.119 4.43945H143.052V1.44336H140.183C139.853 1.44336 139.535 1.48568 139.23 1.57031C138.934 1.64648 138.693 1.78613 138.507 1.98926C138.321 2.19238 138.228 2.48861 138.228 2.87793C138.228 3.26725 138.312 3.57617 138.481 3.80469C138.651 4.0332 138.875 4.19824 139.154 4.2998C139.442 4.3929 139.764 4.43945 140.119 4.43945Z" fill="#FFF9E1"/>
</svg>
