<svg width="350" height="73" viewBox="0 0 350 73" fill="none" xmlns="http://www.w3.org/2000/svg">
<path d="M48.207 28.1055V24.6953C47.4102 24.625 46.6133 24.5078 45.8164 24.3438C45.043 24.1797 44.2812 23.9453 43.5312 23.6406C42.2656 23.125 41.1523 22.3984 40.1914 21.4609C39.2539 20.5234 38.5156 19.4453 37.9766 18.2266C37.4609 16.9844 37.2031 15.6836 37.2031 14.3242C37.2031 12.1914 37.707 10.3867 38.7148 8.91016C39.7461 7.41016 41.0938 6.25 42.7578 5.42969C44.4453 4.58594 46.2617 4.09375 48.207 3.95312V0.542969H51.6875V3.95312C53.6562 4.11719 55.4727 4.60937 57.1367 5.42969C58.8008 6.25 60.1367 7.41016 61.1445 8.91016C62.1758 10.3867 62.6914 12.1914 62.6914 14.3242C62.6914 15.332 62.5391 16.3164 62.2344 17.2773C61.9297 18.2148 61.4961 19.1055 60.9336 19.9492C59.832 21.5664 58.4844 22.7148 56.8906 23.3945C55.2969 24.0742 53.5625 24.5078 51.6875 24.6953V28.1055H48.207ZM48.207 21.6016V7.04688C46.8242 7.16406 45.5703 7.51563 44.4453 8.10156C43.3203 8.6875 42.4297 9.50781 41.7734 10.5625C41.1172 11.5938 40.7891 12.8477 40.7891 14.3242C40.7891 15.8242 41.1172 17.0898 41.7734 18.1211C42.4297 19.1523 43.3203 19.9609 44.4453 20.5469C45.5703 21.1094 46.8242 21.4609 48.207 21.6016ZM51.6875 21.6016C53.0703 21.4844 54.3242 21.1328 55.4492 20.5469C56.5742 19.9609 57.4648 19.1523 58.1211 18.1211C58.7773 17.0664 59.1055 15.8008 59.1055 14.3242C59.1055 12.8242 58.7773 11.5586 58.1211 10.5273C57.4648 9.49609 56.5742 8.69922 55.4492 8.13672C54.3242 7.55078 53.0703 7.1875 51.6875 7.04688V21.6016ZM77.1055 27.6133V1.03516H95.5273V4.375H80.6914V12.1797H94.5078V15.5195H80.6914V24.2734H95.7734V27.6133H77.1055ZM124.355 28.1055C122.387 28.1055 120.605 27.7539 119.012 27.0508C117.441 26.3477 116.094 25.375 114.969 24.1328C113.867 22.8672 113.012 21.4023 112.402 19.7383C111.816 18.0742 111.523 16.293 111.523 14.3945C111.523 12.5195 111.816 10.75 112.402 9.08594C113.012 7.42187 113.879 5.94531 115.004 4.65625C116.129 3.36719 117.477 2.35937 119.047 1.63281C120.617 0.90625 122.375 0.542969 124.32 0.542969C125.75 0.542969 127.145 0.765625 128.504 1.21094C129.863 1.63281 131.152 2.20703 132.371 2.93359V6.94141C131.199 6.12109 129.922 5.40625 128.539 4.79688C127.156 4.1875 125.738 3.88281 124.285 3.88281C122.832 3.88281 121.543 4.17578 120.418 4.76172C119.316 5.34766 118.391 6.13281 117.641 7.11719C116.891 8.10156 116.316 9.21484 115.918 10.457C115.543 11.6992 115.355 12.9883 115.355 14.3242C115.355 15.6602 115.543 16.9609 115.918 18.2266C116.316 19.4688 116.891 20.582 117.641 21.5664C118.414 22.5508 119.363 23.3359 120.488 23.9219C121.613 24.4844 122.902 24.7656 124.355 24.7656C125.832 24.7656 127.262 24.4492 128.645 23.8164C130.027 23.1602 131.305 22.4102 132.477 21.5664V25.7148C131.258 26.4414 129.957 27.0273 128.574 27.4727C127.215 27.8945 125.809 28.1055 124.355 28.1055ZM156.102 28.1055V4.375H146.398V1.03516H169.566V4.375H159.898V28.1055H156.102ZM183.207 27.8594V0.789062H186.863V21.9883L201.242 0.789062H204.793V27.8594H201.137V6.66016L186.758 27.8594H183.207ZM220.754 27.6133V1.03516H232.039C233.539 1.03516 234.922 1.26953 236.188 1.73828C237.477 2.20703 238.508 2.95703 239.281 3.98828C240.055 4.99609 240.441 6.34375 240.441 8.03125C240.441 10.9375 239.07 12.9297 236.328 14.0078C239.516 15.0391 241.109 17.207 241.109 20.5117C241.109 21.918 240.863 23.0898 240.371 24.0273C239.879 24.9414 239.199 25.6562 238.332 26.1719C237.465 26.6875 236.48 27.0625 235.379 27.2969C234.277 27.5078 233.117 27.6133 231.898 27.6133H220.754ZM224.34 12.5312H231.863C233.316 12.5312 234.488 12.2148 235.379 11.582C236.293 10.9492 236.75 9.84766 236.75 8.27734C236.75 7.26953 236.527 6.48438 236.082 5.92188C235.66 5.33594 235.074 4.92578 234.324 4.69141C233.598 4.43359 232.777 4.30469 231.863 4.30469H224.34V12.5312ZM224.34 24.3438H231.723C232.684 24.3438 233.598 24.2266 234.465 23.9922C235.332 23.7578 236.035 23.3477 236.574 22.7617C237.137 22.1523 237.418 21.2852 237.418 20.1602C237.418 18.9648 237.113 18.0508 236.504 17.418C235.895 16.7852 235.121 16.3633 234.184 16.1523C233.27 15.918 232.309 15.8008 231.301 15.8008H224.34V24.3438ZM252.922 27.8594L264.102 0.542969H267.898L279.078 27.8594H275.211L272.188 20.1602H259.848L256.789 27.8594H252.922ZM261.113 16.8906H270.887L266 4.44531L261.113 16.8906ZM309.453 27.8594V4.375H297.219V23.9922C297.219 25.1172 296.984 25.9375 296.516 26.4531C296.07 26.9688 295.473 27.2969 294.723 27.4375C293.973 27.5547 293.129 27.6133 292.191 27.6133H289.977V24.2734C290.234 24.2734 290.562 24.2852 290.961 24.3086C291.359 24.332 291.758 24.3203 292.156 24.2734C292.555 24.2266 292.883 24.1094 293.141 23.9219C293.422 23.7344 293.562 23.4297 293.562 23.0078V1.03516H313.109V27.8594H309.453ZM329.668 27.6133V0.789062H333.254V12.0742C334.543 12.0742 335.879 12.0625 337.262 12.0391C338.645 12.0156 339.98 12.0859 341.27 12.25C342.559 12.3906 343.719 12.7188 344.75 13.2344C345.781 13.7266 346.602 14.5 347.211 15.5547C347.82 16.6094 348.125 18.0391 348.125 19.8438C348.125 21.7188 347.75 23.2305 347 24.3789C346.273 25.5273 345.242 26.3594 343.906 26.875C342.57 27.3672 341.023 27.6133 339.266 27.6133H329.668ZM333.254 24.3438H338.598C339.699 24.3438 340.684 24.2383 341.551 24.0273C342.441 23.793 343.145 23.3594 343.66 22.7266C344.176 22.0703 344.434 21.1094 344.434 19.8438C344.434 18.5547 344.176 17.5938 343.66 16.9609C343.145 16.3281 342.441 15.9062 341.551 15.6953C340.684 15.4609 339.699 15.3438 338.598 15.3438H333.254V24.3438ZM0.921875 67.8594L12.1016 40.543H15.8984L27.0781 67.8594H23.2109L20.1875 60.1602H7.84766L4.78906 67.8594H0.921875ZM9.11328 56.8906H18.8867L14 44.4453L9.11328 56.8906ZM52.3555 68.1055C50.3867 68.1055 48.6055 67.7539 47.0117 67.0508C45.4414 66.3477 44.0938 65.375 42.9688 64.1328C41.8672 62.8672 41.0117 61.4023 40.4023 59.7383C39.8164 58.0742 39.5234 56.293 39.5234 54.3945C39.5234 52.5195 39.8164 50.75 40.4023 49.0859C41.0117 47.4219 41.8789 45.9453 43.0039 44.6562C44.1289 43.3672 45.4766 42.3594 47.0469 41.6328C48.6172 40.9062 50.375 40.543 52.3203 40.543C53.75 40.543 55.1445 40.7656 56.5039 41.2109C57.8633 41.6328 59.1523 42.207 60.3711 42.9336V46.9414C59.1992 46.1211 57.9219 45.4062 56.5391 44.7969C55.1562 44.1875 53.7383 43.8828 52.2852 43.8828C50.832 43.8828 49.543 44.1758 48.418 44.7617C47.3164 45.3477 46.3906 46.1328 45.6406 47.1172C44.8906 48.1016 44.3164 49.2148 43.918 50.457C43.543 51.6992 43.3555 52.9883 43.3555 54.3242C43.3555 55.6602 43.543 56.9609 43.918 58.2266C44.3164 59.4688 44.8906 60.582 45.6406 61.5664C46.4141 62.5508 47.3633 63.3359 48.4883 63.9219C49.6133 64.4844 50.9023 64.7656 52.3555 64.7656C53.832 64.7656 55.2617 64.4492 56.6445 63.8164C58.0273 63.1602 59.3047 62.4102 60.4766 61.5664V65.7148C59.2578 66.4414 57.957 67.0273 56.5742 67.4727C55.2148 67.8945 53.8086 68.1055 52.3555 68.1055ZM84.1016 68.1055V44.375H74.3984V41.0352H97.5664V44.375H87.8984V68.1055H84.1016ZM113.105 67.6133V41.0352H131.527V44.375H116.691V52.1797H130.508V55.5195H116.691V64.2734H131.773V67.6133H113.105ZM149.141 67.8594V41.0352H159.16C160.941 41.0352 162.547 41.2695 163.977 41.7383C165.406 42.207 166.543 43.0039 167.387 44.1289C168.254 45.2539 168.688 46.8125 168.688 48.8047C168.688 50.7734 168.254 52.3203 167.387 53.4453C166.543 54.5703 165.406 55.3672 163.977 55.8359C162.547 56.3047 160.941 56.5391 159.16 56.5391H152.727V67.8594H149.141ZM152.727 53.1992H158.457C159.535 53.1992 160.566 53.1055 161.551 52.918C162.559 52.7305 163.379 52.332 164.012 51.7227C164.645 51.0898 164.961 50.1055 164.961 48.7695C164.961 47.7617 164.773 46.9648 164.398 46.3789C164.023 45.793 163.52 45.3594 162.887 45.0781C162.277 44.7734 161.586 44.5859 160.812 44.5156C160.039 44.4219 159.254 44.375 158.457 44.375H152.727V53.1992ZM194.035 68.1055C191.27 68.1055 188.961 67.4844 187.109 66.2422C185.281 65 183.91 63.3242 182.996 61.2148C182.082 59.1055 181.625 56.7617 181.625 54.1836C181.625 51.5586 182.105 49.2266 183.066 47.1875C184.027 45.125 185.445 43.5078 187.32 42.3359C189.219 41.1406 191.527 40.543 194.246 40.543C196.262 40.543 198.031 40.9062 199.555 41.6328C201.078 42.3594 202.344 43.3672 203.352 44.6562C204.383 45.9219 205.145 47.3984 205.637 49.0859C206.152 50.75 206.41 52.5195 206.41 54.3945C206.41 56.9492 205.941 59.2695 205.004 61.3555C204.066 63.418 202.684 65.0586 200.855 66.2773C199.027 67.4961 196.754 68.1055 194.035 68.1055ZM194 64.7656C195.57 64.7656 196.895 64.4844 197.973 63.9219C199.074 63.3359 199.965 62.5508 200.645 61.5664C201.324 60.582 201.816 59.457 202.121 58.1914C202.426 56.9258 202.578 55.5898 202.578 54.1836C202.578 52.3086 202.273 50.5977 201.664 49.0508C201.078 47.4805 200.141 46.2266 198.852 45.2891C197.562 44.3516 195.887 43.8828 193.824 43.8828C192.301 43.8828 191 44.1758 189.922 44.7617C188.867 45.3242 188 46.0977 187.32 47.082C186.664 48.0664 186.184 49.1914 185.879 50.457C185.574 51.6992 185.422 52.9883 185.422 54.3242C185.422 56.1523 185.703 57.8633 186.266 59.457C186.852 61.0508 187.766 62.3398 189.008 63.3242C190.273 64.2852 191.938 64.7656 194 64.7656ZM219.207 67.8594V40.7891H222.863V61.9883L237.242 40.7891H240.793V67.8594H237.137V46.6602L222.758 67.8594H219.207ZM252.957 72.3242V64.3438H255.559L255.594 64.2383C257.375 60.5117 258.711 56.7383 259.602 52.918C260.492 49.0977 261.055 45.1367 261.289 41.0352H275.773V64.3438H279.008V72.3242H275.422V67.6133H256.543V72.3242H252.957ZM259.391 64.3438H272.188V44.3047H264.418C264.113 47.7266 263.562 51.1367 262.766 54.5352C261.992 57.9336 260.867 61.2031 259.391 64.3438ZM302.035 68.1055C299.27 68.1055 296.961 67.4844 295.109 66.2422C293.281 65 291.91 63.3242 290.996 61.2148C290.082 59.1055 289.625 56.7617 289.625 54.1836C289.625 51.5586 290.105 49.2266 291.066 47.1875C292.027 45.125 293.445 43.5078 295.32 42.3359C297.219 41.1406 299.527 40.543 302.246 40.543C304.262 40.543 306.031 40.9062 307.555 41.6328C309.078 42.3594 310.344 43.3672 311.352 44.6562C312.383 45.9219 313.145 47.3984 313.637 49.0859C314.152 50.75 314.41 52.5195 314.41 54.3945C314.41 56.9492 313.941 59.2695 313.004 61.3555C312.066 63.418 310.684 65.0586 308.855 66.2773C307.027 67.4961 304.754 68.1055 302.035 68.1055ZM302 64.7656C303.57 64.7656 304.895 64.4844 305.973 63.9219C307.074 63.3359 307.965 62.5508 308.645 61.5664C309.324 60.582 309.816 59.457 310.121 58.1914C310.426 56.9258 310.578 55.5898 310.578 54.1836C310.578 52.3086 310.273 50.5977 309.664 49.0508C309.078 47.4805 308.141 46.2266 306.852 45.2891C305.562 44.3516 303.887 43.8828 301.824 43.8828C300.301 43.8828 299 44.1758 297.922 44.7617C296.867 45.3242 296 46.0977 295.32 47.082C294.664 48.0664 294.184 49.1914 293.879 50.457C293.574 51.6992 293.422 52.9883 293.422 54.3242C293.422 56.1523 293.703 57.8633 294.266 59.457C294.852 61.0508 295.766 62.3398 297.008 63.3242C298.273 64.2852 299.938 64.7656 302 64.7656ZM328.754 67.6133V41.0352H340.039C341.539 41.0352 342.922 41.2695 344.188 41.7383C345.477 42.207 346.508 42.957 347.281 43.9883C348.055 44.9961 348.441 46.3438 348.441 48.0312C348.441 50.9375 347.07 52.9297 344.328 54.0078C347.516 55.0391 349.109 57.207 349.109 60.5117C349.109 61.918 348.863 63.0898 348.371 64.0273C347.879 64.9414 347.199 65.6562 346.332 66.1719C345.465 66.6875 344.48 67.0625 343.379 67.2969C342.277 67.5078 341.117 67.6133 339.898 67.6133H328.754ZM332.34 52.5312H339.863C341.316 52.5312 342.488 52.2148 343.379 51.582C344.293 50.9492 344.75 49.8477 344.75 48.2773C344.75 47.2695 344.527 46.4844 344.082 45.9219C343.66 45.3359 343.074 44.9258 342.324 44.6914C341.598 44.4336 340.777 44.3047 339.863 44.3047H332.34V52.5312ZM332.34 64.3438H339.723C340.684 64.3438 341.598 64.2266 342.465 63.9922C343.332 63.7578 344.035 63.3477 344.574 62.7617C345.137 62.1523 345.418 61.2852 345.418 60.1602C345.418 58.9648 345.113 58.0508 344.504 57.418C343.895 56.7852 343.121 56.3633 342.184 56.1523C341.27 55.918 340.309 55.8008 339.301 55.8008H332.34V64.3438Z" fill="#FFF9E1"/>
</svg>
